<?xml version="1.0" encoding="UTF-8" standalone="no"?>
<!-- Created with Inkscape (http://www.inkscape.org/) -->

<svg
   xmlns:dc="http://purl.org/dc/elements/1.1/"
   xmlns:cc="http://creativecommons.org/ns#"
   xmlns:rdf="http://www.w3.org/1999/02/22-rdf-syntax-ns#"
   xmlns:svg="http://www.w3.org/2000/svg"
   xmlns="http://www.w3.org/2000/svg"
   xmlns:sodipodi="http://sodipodi.sourceforge.net/DTD/sodipodi-0.dtd"
   xmlns:inkscape="http://www.inkscape.org/namespaces/inkscape"
   width="272.67279mm"
   height="237.72954mm"
   viewBox="0 0 966.16343 842.34875"
   id="svg2"
   version="1.1"
   inkscape:version="0.91 r13725"
   sodipodi:docname="ImageMenu.svg"
   inkscape:export-filename="MenuBackground.png"
   inkscape:export-xdpi="144"
   inkscape:export-ydpi="144">
  <defs
     id="defs4" />
  <sodipodi:namedview
     id="base"
     pagecolor="#0088f4"
     bordercolor="#666666"
     borderopacity="1.0"
     inkscape:pageopacity="0"
     inkscape:pageshadow="2"
     inkscape:zoom="1"
     inkscape:cx="92.062357"
     inkscape:cy="453.09461"
     inkscape:document-units="px"
     inkscape:current-layer="g4993"
     showgrid="false"
     inkscape:window-width="1920"
     inkscape:window-height="1005"
     inkscape:window-x="-9"
     inkscape:window-y="-9"
     inkscape:window-maximized="1"
     fit-margin-top="0"
     fit-margin-left="0"
     fit-margin-right="0"
     fit-margin-bottom="0" />
  <metadata
     id="metadata7">
    <rdf:RDF>
      <cc:Work
         rdf:about="">
        <dc:format>image/svg+xml</dc:format>
        <dc:type
           rdf:resource="http://purl.org/dc/dcmitype/StillImage" />
        <dc:title></dc:title>
      </cc:Work>
    </rdf:RDF>
  </metadata>
  <g
     inkscape:label="Calque 1"
     inkscape:groupmode="layer"
     id="layer1"
     transform="translate(65.131149,117.66929)">
    <path
       style="color:#000000;clip-rule:nonzero;display:inline;overflow:visible;visibility:visible;opacity:1;isolation:auto;mix-blend-mode:normal;color-interpolation:sRGB;color-interpolation-filters:linearRGB;solid-color:#000000;solid-opacity:1;fill:#ffffff;fill-opacity:0.30868165;fill-rule:evenodd;stroke:none;stroke-width:2;stroke-linecap:round;stroke-linejoin:round;stroke-miterlimit:4;stroke-dasharray:none;stroke-dashoffset:0;stroke-opacity:1;marker:none;color-rendering:auto;image-rendering:auto;shape-rendering:auto;text-rendering:auto;enable-background:accumulate"
       d="M 59.875,-34.072266 A 187.95326,187.95326 0 0 0 -112,90.470703 187.95326,187.95326 0 0 0 1.6171875,330.77148 187.95326,187.95326 0 0 0 231.88477,239.75 l 136.92382,49.01172 a 97.039536,97.039536 0 0 0 62.68164,108.97656 97.039536,97.039536 0 0 0 78.22071,-5.79101 l 92.67773,119.19335 a 45.521755,45.521755 0 0 0 -8.35351,45.4629 45.521755,45.521755 0 0 0 58.42968,27.02929 45.521755,45.521755 0 0 0 27.0293,-58.42773 45.521755,45.521755 0 0 0 -58.42969,-27.0293 45.521755,45.521755 0 0 0 -9.62695,4.96289 L 520.07812,385.64062 a 97.039536,97.039536 0 0 0 35.47852,-46.5625 97.039536,97.039536 0 0 0 3.36524,-53.54296 l 105.38476,-36.45313 a 97.039536,97.039536 0 0 0 1.58008,5.07031 97.039536,97.039536 0 0 0 124.55273,57.61914 97.039536,97.039536 0 0 0 57.61914,-124.55273 97.039536,97.039536 0 0 0 -124.55273,-57.61914 97.039536,97.039536 0 0 0 -63.44336,95.23242 L 550.69922,262.66211 A 97.039536,97.039536 0 0 0 496.89648,215.01172 97.039536,97.039536 0 0 0 384.36133,251.41211 L 246.50195,202.06445 A 187.95326,187.95326 0 0 0 128.30078,-23.146484 187.95326,187.95326 0 0 0 59.875,-34.072266 Z"
       id="path4201"
       inkscape:connector-curvature="0" />
    <g
       id="g4194"
       transform="translate(539.47496,-60.160998)">
      <ellipse
         ry="31.007307"
         rx="32.277729"
         cy="228.39111"
         cx="6.4988785"
         id="path4138"
         style="color:#000000;clip-rule:nonzero;display:inline;overflow:visible;visibility:visible;opacity:1;isolation:auto;mix-blend-mode:normal;color-interpolation:sRGB;color-interpolation-filters:linearRGB;solid-color:#000000;solid-opacity:1;fill:none;fill-opacity:1;fill-rule:evenodd;stroke:#ffffff;stroke-width:5;stroke-linecap:round;stroke-linejoin:round;stroke-miterlimit:4;stroke-dasharray:none;stroke-dashoffset:0;stroke-opacity:1;marker:none;color-rendering:auto;image-rendering:auto;shape-rendering:auto;text-rendering:auto;enable-background:accumulate" />
      <ellipse
         style="color:#000000;clip-rule:nonzero;display:inline;overflow:visible;visibility:visible;opacity:1;isolation:auto;mix-blend-mode:normal;color-interpolation:sRGB;color-interpolation-filters:linearRGB;solid-color:#000000;solid-opacity:1;fill:none;fill-opacity:1;fill-rule:evenodd;stroke:#ffffff;stroke-width:4;stroke-linecap:round;stroke-linejoin:round;stroke-miterlimit:4;stroke-dasharray:none;stroke-dashoffset:0;stroke-opacity:1;marker:none;color-rendering:auto;image-rendering:auto;shape-rendering:auto;text-rendering:auto;enable-background:accumulate"
         id="ellipse4140"
         cx="91.351692"
         cy="176.57811"
         rx="24.196508"
         ry="23.221292" />
      <path
         inkscape:connector-curvature="0"
         id="path4142"
         d="M 34.995888,214.13644 71.723141,189.6644"
         style="color:#000000;clip-rule:nonzero;display:inline;overflow:visible;visibility:visible;opacity:1;isolation:auto;mix-blend-mode:normal;color-interpolation:sRGB;color-interpolation-filters:linearRGB;solid-color:#000000;solid-opacity:1;fill:none;fill-opacity:1;fill-rule:evenodd;stroke:#ffffff;stroke-width:5;stroke-linecap:butt;stroke-linejoin:round;stroke-miterlimit:4;stroke-dasharray:none;stroke-dashoffset:0;stroke-opacity:1;marker:none;color-rendering:auto;image-rendering:auto;shape-rendering:auto;text-rendering:auto;enable-background:accumulate" />
      <path
         style="color:#000000;clip-rule:nonzero;display:inline;overflow:visible;visibility:visible;opacity:1;isolation:auto;mix-blend-mode:normal;color-interpolation:sRGB;color-interpolation-filters:linearRGB;solid-color:#000000;solid-opacity:1;fill:none;fill-opacity:1;fill-rule:evenodd;stroke:#ffffff;stroke-width:5;stroke-linecap:butt;stroke-linejoin:round;stroke-miterlimit:4;stroke-dasharray:none;stroke-dashoffset:0;stroke-opacity:1;marker:none;color-rendering:auto;image-rendering:auto;shape-rendering:auto;text-rendering:auto;enable-background:accumulate"
         d="m 34.519183,245.12479 33.387515,12.04114"
         id="path4158"
         inkscape:connector-curvature="0" />
      <ellipse
         ry="14.218712"
         rx="14.852597"
         cy="260.16824"
         cx="81.502708"
         id="ellipse4160"
         style="color:#000000;clip-rule:nonzero;display:inline;overflow:visible;visibility:visible;opacity:1;isolation:auto;mix-blend-mode:normal;color-interpolation:sRGB;color-interpolation-filters:linearRGB;solid-color:#000000;solid-opacity:1;fill:none;fill-opacity:1;fill-rule:evenodd;stroke:#ffffff;stroke-width:3;stroke-linecap:round;stroke-linejoin:round;stroke-miterlimit:4;stroke-dasharray:none;stroke-dashoffset:0;stroke-opacity:1;marker:none;color-rendering:auto;image-rendering:auto;shape-rendering:auto;text-rendering:auto;enable-background:accumulate" />
      <path
         style="color:#000000;clip-rule:nonzero;display:inline;overflow:visible;visibility:visible;opacity:1;isolation:auto;mix-blend-mode:normal;color-interpolation:sRGB;color-interpolation-filters:linearRGB;solid-color:#000000;solid-opacity:1;fill:none;fill-opacity:1;fill-rule:evenodd;stroke:#ffffff;stroke-width:3;stroke-linecap:round;stroke-linejoin:round;stroke-miterlimit:4;stroke-dasharray:none;stroke-dashoffset:0;stroke-opacity:1;marker:none;color-rendering:auto;image-rendering:auto;shape-rendering:auto;text-rendering:auto;enable-background:accumulate"
         id="ellipse4290"
         sodipodi:type="arc"
         sodipodi:cx="6.4988785"
         sodipodi:cy="228.39111"
         sodipodi:rx="23.890112"
         sodipodi:ry="22.926086"
         sodipodi:start="2.926575"
         sodipodi:end="4.997056"
         sodipodi:open="true"
         d="m -16.841107,233.28273 a 23.890112,22.926086 0 0 1 7.0455374,-21.65741 23.890112,22.926086 0 0 1 23.0036966,-5.23764" />
      <path
         id="ellipse4292"
         style="color:#000000;clip-rule:nonzero;display:inline;overflow:visible;visibility:visible;opacity:1;isolation:auto;mix-blend-mode:normal;color-interpolation:sRGB;color-interpolation-filters:linearRGB;solid-color:#000000;solid-opacity:1;fill:none;fill-opacity:1;fill-rule:evenodd;stroke:#ffffff;stroke-width:3;stroke-linecap:round;stroke-linejoin:round;stroke-miterlimit:4;stroke-dasharray:none;stroke-dashoffset:0;stroke-opacity:1;marker:none;color-rendering:auto;image-rendering:auto;shape-rendering:auto;text-rendering:auto;enable-background:accumulate"
         sodipodi:type="arc"
         sodipodi:cx="91.351692"
         sodipodi:cy="176.57811"
         sodipodi:rx="18.425846"
         sodipodi:ry="17.665453"
         sodipodi:start="2.849151"
         sodipodi:end="5.1015137"
         sodipodi:open="true"
         d="m 73.708155,181.6709 a 18.425846,17.665453 0 0 1 5.259316,-18.17318 18.425846,17.665453 0 0 1 19.374595,-3.26442" />
      <path
         style="color:#000000;clip-rule:nonzero;display:inline;overflow:visible;visibility:visible;opacity:1;isolation:auto;mix-blend-mode:normal;color-interpolation:sRGB;color-interpolation-filters:linearRGB;solid-color:#000000;solid-opacity:1;fill:none;fill-opacity:1;fill-rule:evenodd;stroke:#ffffff;stroke-width:2;stroke-linecap:round;stroke-linejoin:round;stroke-miterlimit:4;stroke-dasharray:none;stroke-dashoffset:0;stroke-opacity:1;marker:none;color-rendering:auto;image-rendering:auto;shape-rendering:auto;text-rendering:auto;enable-background:accumulate"
         id="ellipse4294"
         sodipodi:type="arc"
         sodipodi:cx="81.502708"
         sodipodi:cy="260.16824"
         sodipodi:rx="10.38632"
         sodipodi:ry="9.9255638"
         sodipodi:start="2.6753428"
         sodipodi:end="5.1630918"
         sodipodi:open="true"
         d="m 72.22502,264.63018 a 10.38632,9.9255638 0 0 1 1.876583,-11.4256 10.38632,9.9255638 0 0 1 11.925369,-1.97075" />
    </g>
    <g
       id="g4186"
       transform="translate(-244.12183,169.90069)">
      <path
         sodipodi:nodetypes="sssscczsszccsssss"
         inkscape:connector-curvature="0"
         id="rect4162"
         d="m 376.28125,194.74219 c -5.03662,0 -9.0918,4.05517 -9.0918,9.09179 l 0,5.55664 c 0,5.03662 4.05517,9.0918 9.0918,9.0918 l 8.33398,0 0,77.9336 c 0,0 -52.61914,119.4064 -52.61914,132.17773 0,12.77133 7.88431,17.67773 17.67774,17.67773 l 136.37109,0 c 9.79343,0 17.67774,-5.55203 17.67774,-17.67773 0,-12.1257 -52.4375,-131.72266 -52.4375,-131.72266 l 0,-78.38867 8.33398,0 c 5.03662,0 9.0918,-4.05518 9.0918,-9.0918 l 0,-5.55664 c 0,-5.03662 -4.05518,-9.09179 -9.0918,-9.09179 z"
         style="color:#000000;clip-rule:nonzero;display:inline;overflow:visible;visibility:visible;opacity:1;isolation:auto;mix-blend-mode:normal;color-interpolation:sRGB;color-interpolation-filters:linearRGB;solid-color:#000000;solid-opacity:1;fill:none;fill-opacity:1;fill-rule:evenodd;stroke:#ffffff;stroke-width:4;stroke-linecap:butt;stroke-linejoin:round;stroke-miterlimit:4;stroke-dasharray:none;stroke-dashoffset:0;stroke-opacity:1;marker:none;color-rendering:auto;image-rendering:auto;shape-rendering:auto;text-rendering:auto;enable-background:accumulate" />
      <path
         inkscape:connector-curvature="0"
         id="path4174"
         d="m 441.43666,234.64372 -29.29442,0"
         style="fill:none;fill-rule:evenodd;stroke:#ffffff;stroke-width:3;stroke-linecap:round;stroke-linejoin:miter;stroke-miterlimit:4;stroke-dasharray:none;stroke-opacity:1" />
      <path
         inkscape:connector-curvature="0"
         id="path4176"
         d="m 441.43666,242.41154 -15.65736,0"
         style="fill:none;fill-rule:evenodd;stroke:#ffffff;stroke-width:3;stroke-linecap:round;stroke-linejoin:miter;stroke-miterlimit:4;stroke-dasharray:none;stroke-opacity:1" />
      <path
         style="fill:none;fill-rule:evenodd;stroke:#ffffff;stroke-width:3;stroke-linecap:round;stroke-linejoin:miter;stroke-miterlimit:4;stroke-dasharray:none;stroke-opacity:1"
         d="m 441.43666,250.17943 -15.65736,0"
         id="path4180"
         inkscape:connector-curvature="0" />
      <path
         inkscape:connector-curvature="0"
         id="path4182"
         d="m 441.43666,257.94731 -15.65736,0"
         style="fill:none;fill-rule:evenodd;stroke:#ffffff;stroke-width:3;stroke-linecap:round;stroke-linejoin:miter;stroke-miterlimit:4;stroke-dasharray:none;stroke-opacity:1" />
      <path
         style="fill:none;fill-rule:evenodd;stroke:#ffffff;stroke-width:3;stroke-linecap:round;stroke-linejoin:miter;stroke-miterlimit:4;stroke-dasharray:none;stroke-opacity:1"
         d="m 441.43666,265.71515 -29.29442,0"
         id="path4184"
         inkscape:connector-curvature="0" />
      <path
         style="fill:none;fill-rule:evenodd;stroke:#ffffff;stroke-width:5.99999905;stroke-linecap:round;stroke-linejoin:miter;stroke-miterlimit:4;stroke-dasharray:none;stroke-opacity:1"
         d="m 390.86044,307.10935 -24.60442,58.91006"
         id="path4296"
         inkscape:connector-curvature="0" />
    </g>
    <g
       id="g4252"
       transform="translate(-60.609153,-3.0304576)">
      <path
         sodipodi:nodetypes="sssscssssscsssss"
         inkscape:connector-curvature="0"
         id="rect4229"
         d="m 735.88826,378.58984 c -3.02296,0 -5.45662,2.46262 -5.45662,5.52154 l 0,0.36867 c 0,3.05892 2.43366,5.52152 5.45662,5.52152 l 2.51801,0 c -0.032,0.23196 -0.0549,0.46633 -0.0549,0.70745 l 0,158.39354 c 0,12.68948 10.09642,22.9046 22.63673,22.9046 12.5403,0 22.63532,-10.21512 22.63532,-22.9046 l 0,-158.39354 c 0,-0.24112 -0.0214,-0.47549 -0.0534,-0.70745 l 2.518,0 c 3.02295,0 5.45662,-2.4626 5.45662,-5.52152 l 0,-0.36867 c 0,-3.05892 -2.43367,-5.52154 -5.45662,-5.52154 z"
         style="color:#000000;clip-rule:nonzero;display:inline;overflow:visible;visibility:visible;opacity:1;isolation:auto;mix-blend-mode:normal;color-interpolation:sRGB;color-interpolation-filters:linearRGB;solid-color:#000000;solid-opacity:1;fill:none;fill-opacity:1;fill-rule:evenodd;stroke:#ffffff;stroke-width:4;stroke-linecap:butt;stroke-linejoin:round;stroke-miterlimit:4;stroke-dasharray:none;stroke-dashoffset:0;stroke-opacity:1;marker:none;color-rendering:auto;image-rendering:auto;shape-rendering:auto;text-rendering:auto;enable-background:accumulate" />
      <path
         inkscape:connector-curvature="0"
         id="path4250"
         d="m 748.85139,404.07256 0,63.84178"
         style="fill:none;fill-rule:evenodd;stroke:#ffffff;stroke-width:5.99999905;stroke-linecap:round;stroke-linejoin:miter;stroke-miterlimit:4;stroke-dasharray:none;stroke-opacity:1" />
    </g>
    <g
       id="g4256"
       transform="matrix(0.96592582,0.25881905,-0.25881905,0.96592582,179.79269,-183.27225)">
      <path
         style="color:#000000;clip-rule:nonzero;display:inline;overflow:visible;visibility:visible;opacity:1;isolation:auto;mix-blend-mode:normal;color-interpolation:sRGB;color-interpolation-filters:linearRGB;solid-color:#000000;solid-opacity:1;fill:none;fill-opacity:1;fill-rule:evenodd;stroke:#ffffff;stroke-width:4;stroke-linecap:butt;stroke-linejoin:round;stroke-miterlimit:4;stroke-dasharray:none;stroke-dashoffset:0;stroke-opacity:1;marker:none;color-rendering:auto;image-rendering:auto;shape-rendering:auto;text-rendering:auto;enable-background:accumulate"
         d="m 735.88826,378.58984 c -3.02296,0 -5.45662,2.46262 -5.45662,5.52154 l 0,0.36867 c 0,3.05892 2.43366,5.52152 5.45662,5.52152 l 2.51801,0 c -0.032,0.23196 -0.0549,0.46633 -0.0549,0.70745 l 0,158.39354 c 0,12.68948 10.09642,22.9046 22.63673,22.9046 12.5403,0 22.63532,-10.21512 22.63532,-22.9046 l 0,-158.39354 c 0,-0.24112 -0.0214,-0.47549 -0.0534,-0.70745 l 2.518,0 c 3.02295,0 5.45662,-2.4626 5.45662,-5.52152 l 0,-0.36867 c 0,-3.05892 -2.43367,-5.52154 -5.45662,-5.52154 z"
         id="path4258"
         inkscape:connector-curvature="0"
         sodipodi:nodetypes="sssscssssscsssss" />
      <path
         style="fill:none;fill-rule:evenodd;stroke:#ffffff;stroke-width:5.99999905;stroke-linecap:round;stroke-linejoin:miter;stroke-miterlimit:4;stroke-dasharray:none;stroke-opacity:1"
         d="m 748.85139,404.07256 0,63.84178"
         id="path4260"
         inkscape:connector-curvature="0" />
    </g>
    <g
       id="g4284"
       transform="matrix(0.96918317,0.24634119,-0.24634119,0.96918317,-72.56138,-250.86386)">
      <path
         transform="matrix(0.98958805,0.14392875,-0.14392875,0.98958805,52.843157,-58.145234)"
         d="m 465.68033,383.64123 -59.80426,8.62968 -37.37564,-47.47717 22.42861,-56.10685 59.80426,-8.62967 37.37565,47.47717 z"
         inkscape:randomized="0"
         inkscape:rounded="0"
         inkscape:flatsided="true"
         sodipodi:arg2="1.4274869"
         sodipodi:arg1="0.90388812"
         sodipodi:r2="52.328438"
         sodipodi:r1="60.423676"
         sodipodi:cy="336.16406"
         sodipodi:cx="428.30469"
         sodipodi:sides="6"
         id="path4262"
         style="color:#000000;clip-rule:nonzero;display:inline;overflow:visible;visibility:visible;opacity:1;isolation:auto;mix-blend-mode:normal;color-interpolation:sRGB;color-interpolation-filters:linearRGB;solid-color:#000000;solid-opacity:1;fill:none;fill-opacity:1;fill-rule:evenodd;stroke:#ffffff;stroke-width:6;stroke-linecap:round;stroke-linejoin:round;stroke-miterlimit:4;stroke-dasharray:none;stroke-dashoffset:0;stroke-opacity:1;marker:none;color-rendering:auto;image-rendering:auto;shape-rendering:auto;text-rendering:auto;enable-background:accumulate"
         sodipodi:type="star" />
      <path
         inkscape:connector-curvature="0"
         id="path4264"
         d="m 403.21428,294.14792 -23.30265,40.36137"
         style="color:#000000;clip-rule:nonzero;display:inline;overflow:visible;visibility:visible;opacity:1;isolation:auto;mix-blend-mode:normal;color-interpolation:sRGB;color-interpolation-filters:linearRGB;solid-color:#000000;solid-opacity:1;fill:none;fill-opacity:1;fill-rule:evenodd;stroke:#ffffff;stroke-width:6;stroke-linecap:round;stroke-linejoin:round;stroke-miterlimit:4;stroke-dasharray:none;stroke-dashoffset:0;stroke-opacity:1;marker:none;color-rendering:auto;image-rendering:auto;shape-rendering:auto;text-rendering:auto;enable-background:accumulate" />
      <path
         style="color:#000000;clip-rule:nonzero;display:inline;overflow:visible;visibility:visible;opacity:1;isolation:auto;mix-blend-mode:normal;color-interpolation:sRGB;color-interpolation-filters:linearRGB;solid-color:#000000;solid-opacity:1;fill:none;fill-opacity:1;fill-rule:evenodd;stroke:#ffffff;stroke-width:6;stroke-linecap:round;stroke-linejoin:round;stroke-miterlimit:4;stroke-dasharray:none;stroke-dashoffset:0;stroke-opacity:1;marker:none;color-rendering:auto;image-rendering:auto;shape-rendering:auto;text-rendering:auto;enable-background:accumulate"
         d="M 475.35714,334.5093 452.05449,294.14791"
         id="path4280"
         inkscape:connector-curvature="0" />
      <path
         inkscape:connector-curvature="0"
         id="path4282"
         d="m 451.29419,378.25719 -46.60531,-10e-6"
         style="color:#000000;clip-rule:nonzero;display:inline;overflow:visible;visibility:visible;opacity:1;isolation:auto;mix-blend-mode:normal;color-interpolation:sRGB;color-interpolation-filters:linearRGB;solid-color:#000000;solid-opacity:1;fill:none;fill-opacity:1;fill-rule:evenodd;stroke:#ffffff;stroke-width:6;stroke-linecap:round;stroke-linejoin:round;stroke-miterlimit:4;stroke-dasharray:none;stroke-dashoffset:0;stroke-opacity:1;marker:none;color-rendering:auto;image-rendering:auto;shape-rendering:auto;text-rendering:auto;enable-background:accumulate" />
    </g>
    <g
       transform="matrix(0.4891324,-0.12413094,0.12413094,0.4891324,199.42604,308.59306)"
       id="g4313">
      <path
         sodipodi:type="star"
         style="color:#000000;clip-rule:nonzero;display:inline;overflow:visible;visibility:visible;opacity:1;isolation:auto;mix-blend-mode:normal;color-interpolation:sRGB;color-interpolation-filters:linearRGB;solid-color:#000000;solid-opacity:1;fill:none;fill-opacity:1;fill-rule:evenodd;stroke:#ffffff;stroke-width:6;stroke-linecap:round;stroke-linejoin:round;stroke-miterlimit:4;stroke-dasharray:none;stroke-dashoffset:0;stroke-opacity:1;marker:none;color-rendering:auto;image-rendering:auto;shape-rendering:auto;text-rendering:auto;enable-background:accumulate"
         id="path4315"
         sodipodi:sides="6"
         sodipodi:cx="428.30469"
         sodipodi:cy="336.16406"
         sodipodi:r1="60.423676"
         sodipodi:r2="52.328438"
         sodipodi:arg1="0.90388812"
         sodipodi:arg2="1.4274869"
         inkscape:flatsided="true"
         inkscape:rounded="0"
         inkscape:randomized="0"
         d="m 465.68033,383.64123 -59.80426,8.62968 -37.37564,-47.47717 22.42861,-56.10685 59.80426,-8.62967 37.37565,47.47717 z"
         transform="matrix(0.98958805,0.14392875,-0.14392875,0.98958805,52.843157,-58.145234)" />
      <path
         style="color:#000000;clip-rule:nonzero;display:inline;overflow:visible;visibility:visible;opacity:1;isolation:auto;mix-blend-mode:normal;color-interpolation:sRGB;color-interpolation-filters:linearRGB;solid-color:#000000;solid-opacity:1;fill:none;fill-opacity:1;fill-rule:evenodd;stroke:#ffffff;stroke-width:6;stroke-linecap:round;stroke-linejoin:round;stroke-miterlimit:4;stroke-dasharray:none;stroke-dashoffset:0;stroke-opacity:1;marker:none;color-rendering:auto;image-rendering:auto;shape-rendering:auto;text-rendering:auto;enable-background:accumulate"
         d="m 403.21428,294.14792 -23.30265,40.36137"
         id="path4317"
         inkscape:connector-curvature="0" />
      <path
         inkscape:connector-curvature="0"
         id="path4319"
         d="M 475.35714,334.5093 452.05449,294.14791"
         style="color:#000000;clip-rule:nonzero;display:inline;overflow:visible;visibility:visible;opacity:1;isolation:auto;mix-blend-mode:normal;color-interpolation:sRGB;color-interpolation-filters:linearRGB;solid-color:#000000;solid-opacity:1;fill:none;fill-opacity:1;fill-rule:evenodd;stroke:#ffffff;stroke-width:6;stroke-linecap:round;stroke-linejoin:round;stroke-miterlimit:4;stroke-dasharray:none;stroke-dashoffset:0;stroke-opacity:1;marker:none;color-rendering:auto;image-rendering:auto;shape-rendering:auto;text-rendering:auto;enable-background:accumulate" />
      <path
         style="color:#000000;clip-rule:nonzero;display:inline;overflow:visible;visibility:visible;opacity:1;isolation:auto;mix-blend-mode:normal;color-interpolation:sRGB;color-interpolation-filters:linearRGB;solid-color:#000000;solid-opacity:1;fill:none;fill-opacity:1;fill-rule:evenodd;stroke:#ffffff;stroke-width:6;stroke-linecap:round;stroke-linejoin:round;stroke-miterlimit:4;stroke-dasharray:none;stroke-dashoffset:0;stroke-opacity:1;marker:none;color-rendering:auto;image-rendering:auto;shape-rendering:auto;text-rendering:auto;enable-background:accumulate"
         d="m 451.29419,378.25719 -46.60531,-10e-6"
         id="path4321"
         inkscape:connector-curvature="0" />
    </g>
    <g
       id="g4349"
       transform="translate(150.17872,-124.59798)">
      <rect
         y="293.66983"
         x="595.41711"
         height="62.866123"
         width="57.20927"
         id="rect4339"
         style="color:#000000;clip-rule:nonzero;display:inline;overflow:visible;visibility:visible;opacity:1;isolation:auto;mix-blend-mode:normal;color-interpolation:sRGB;color-interpolation-filters:linearRGB;solid-color:#000000;solid-opacity:1;fill:none;fill-opacity:1;fill-rule:evenodd;stroke:#ffffff;stroke-width:3.06637907;stroke-linecap:round;stroke-linejoin:round;stroke-miterlimit:4;stroke-dasharray:none;stroke-dashoffset:0;stroke-opacity:1;marker:none;color-rendering:auto;image-rendering:auto;shape-rendering:auto;text-rendering:auto;enable-background:accumulate" />
      <text
         sodipodi:linespacing="125%"
         id="text4341"
         y="339.61258"
         x="605.78394"
         style="font-style:normal;font-variant:normal;font-weight:normal;font-stretch:normal;font-size:37.16908264px;line-height:125%;font-family:'Liberation Serif';-inkscape-font-specification:'Liberation Serif, Normal';text-align:start;letter-spacing:0px;word-spacing:0px;writing-mode:lr-tb;text-anchor:start;fill:#ffffff;fill-opacity:1;stroke:none;stroke-width:1px;stroke-linecap:butt;stroke-linejoin:miter;stroke-opacity:1"
         xml:space="preserve"><tspan
           y="339.61258"
           x="605.78394"
           id="tspan4343"
           sodipodi:role="line">Fe</tspan></text>
      <text
         xml:space="preserve"
         style="font-style:normal;font-variant:normal;font-weight:normal;font-stretch:normal;font-size:15px;line-height:125%;font-family:'Liberation Sans';-inkscape-font-specification:'Liberation Sans, Normal';text-align:start;letter-spacing:0px;word-spacing:0px;writing-mode:lr-tb;text-anchor:start;fill:#ffffff;fill-opacity:1;stroke:none;stroke-width:1px;stroke-linecap:butt;stroke-linejoin:miter;stroke-opacity:1"
         x="599.27295"
         y="308.4859"
         id="text4345"
         sodipodi:linespacing="125%"><tspan
           sodipodi:role="line"
           id="tspan4347"
           x="599.27295"
           y="308.4859">26</tspan></text>
    </g>
    <g
       id="g5862"
       transform="matrix(0.80594099,0,0,0.80594099,-340.07393,-218.28508)">
      <text
         sodipodi:linespacing="125%"
         id="text4356"
         y="558.8017"
         x="441.23462"
         style="font-style:normal;font-variant:normal;font-weight:normal;font-stretch:normal;font-size:30px;line-height:125%;font-family:Sans;-inkscape-font-specification:'Sans, Normal';text-align:start;letter-spacing:0px;word-spacing:0px;writing-mode:lr-tb;text-anchor:start;fill:#ffffff;fill-opacity:1;stroke:none;stroke-width:1px;stroke-linecap:butt;stroke-linejoin:miter;stroke-opacity:1"
         xml:space="preserve"><tspan
           y="558.8017"
           x="441.23462"
           id="tspan4358"
           sodipodi:role="line">C</tspan></text>
      <path
         inkscape:connector-curvature="0"
         id="path4360"
         d="m 451,528.8622 0,-38.5"
         style="fill:#ffffff;fill-rule:evenodd;stroke:#ffffff;stroke-width:3;stroke-linecap:round;stroke-linejoin:miter;stroke-miterlimit:4;stroke-dasharray:none;stroke-opacity:1" />
      <path
         inkscape:connector-curvature="0"
         id="path4362"
         d="m 437,558.8622 -31.37676,18.11539"
         style="fill:#ffffff;fill-rule:evenodd;stroke:#ffffff;stroke-width:3;stroke-linecap:round;stroke-linejoin:miter;stroke-miterlimit:4;stroke-dasharray:none;stroke-opacity:1" />
      <path
         inkscape:connector-curvature="0"
         id="path4364"
         d="m 460.46891,562.2184 10.56335,30.53323 10.79413,-6.82158 z"
         style="fill:#ffffff;fill-rule:evenodd;stroke:#ffffff;stroke-width:1.09454405;stroke-linecap:butt;stroke-linejoin:round;stroke-miterlimit:4;stroke-dasharray:none;stroke-opacity:1" />
      <path
         inkscape:connector-curvature="0"
         id="path5824"
         d="m 469.85951,553.31595 -0.62142,2.93493"
         style="color:#000000;clip-rule:nonzero;display:inline;overflow:visible;visibility:visible;opacity:1;isolation:auto;mix-blend-mode:normal;color-interpolation:sRGB;color-interpolation-filters:linearRGB;solid-color:#000000;solid-opacity:1;fill:#ffffff;fill-opacity:1;fill-rule:evenodd;stroke:#ffffff;stroke-width:3;stroke-linecap:round;stroke-linejoin:miter;stroke-miterlimit:4;stroke-dasharray:none;stroke-dashoffset:0;stroke-opacity:1;color-rendering:auto;image-rendering:auto;shape-rendering:auto;text-rendering:auto;enable-background:accumulate" />
      <path
         inkscape:connector-curvature="0"
         id="path5826"
         d="m 479.61236,553.71991 -1.7348,8.19336"
         style="color:#000000;clip-rule:nonzero;display:inline;overflow:visible;visibility:visible;opacity:1;isolation:auto;mix-blend-mode:normal;color-interpolation:sRGB;color-interpolation-filters:linearRGB;solid-color:#000000;solid-opacity:1;fill:#ffffff;fill-opacity:1;fill-rule:evenodd;stroke:#ffffff;stroke-width:3;stroke-linecap:round;stroke-linejoin:miter;stroke-miterlimit:4;stroke-dasharray:none;stroke-dashoffset:0;stroke-opacity:1;color-rendering:auto;image-rendering:auto;shape-rendering:auto;text-rendering:auto;enable-background:accumulate" />
      <path
         inkscape:connector-curvature="0"
         id="path5828"
         d="m 490.6586,554.65326 -2.61513,12.35118"
         style="color:#000000;clip-rule:nonzero;display:inline;overflow:visible;visibility:visible;opacity:1;isolation:auto;mix-blend-mode:normal;color-interpolation:sRGB;color-interpolation-filters:linearRGB;solid-color:#000000;solid-opacity:1;fill:#ffffff;fill-opacity:1;fill-rule:evenodd;stroke:#ffffff;stroke-width:3;stroke-linecap:round;stroke-linejoin:miter;stroke-miterlimit:4;stroke-dasharray:none;stroke-dashoffset:0;stroke-opacity:1;color-rendering:auto;image-rendering:auto;shape-rendering:auto;text-rendering:auto;enable-background:accumulate" />
      <path
         inkscape:connector-curvature="0"
         id="path5830"
         d="m 502.10477,554.90467 -3.85796,18.22105"
         style="color:#000000;clip-rule:nonzero;display:inline;overflow:visible;visibility:visible;opacity:1;isolation:auto;mix-blend-mode:normal;color-interpolation:sRGB;color-interpolation-filters:linearRGB;solid-color:#000000;solid-opacity:1;fill:#ffffff;fill-opacity:1;fill-rule:evenodd;stroke:#ffffff;stroke-width:3;stroke-linecap:round;stroke-linejoin:miter;stroke-miterlimit:4;stroke-dasharray:none;stroke-dashoffset:0;stroke-opacity:1;color-rendering:auto;image-rendering:auto;shape-rendering:auto;text-rendering:auto;enable-background:accumulate" />
      <text
         xml:space="preserve"
         style="font-style:normal;font-variant:normal;font-weight:normal;font-stretch:normal;font-size:30px;line-height:125%;font-family:Sans;-inkscape-font-specification:'Sans, Normal';text-align:start;letter-spacing:0px;word-spacing:0px;writing-mode:lr-tb;text-anchor:start;fill:#ffffff;fill-opacity:1;stroke:none;stroke-width:1px;stroke-linecap:butt;stroke-linejoin:miter;stroke-opacity:1"
         x="379.36276"
         y="591.32861"
         id="text5846"
         sodipodi:linespacing="125%"><tspan
           sodipodi:role="line"
           id="tspan5848"
           x="379.36276"
           y="591.32861">H</tspan></text>
      <text
         sodipodi:linespacing="125%"
         id="text5850"
         y="488.09103"
         x="439.11328"
         style="font-style:normal;font-variant:normal;font-weight:normal;font-stretch:normal;font-size:30px;line-height:125%;font-family:Sans;-inkscape-font-specification:'Sans, Normal';text-align:start;letter-spacing:0px;word-spacing:0px;writing-mode:lr-tb;text-anchor:start;fill:#ffffff;fill-opacity:1;stroke:none;stroke-width:1px;stroke-linecap:butt;stroke-linejoin:miter;stroke-opacity:1"
         xml:space="preserve"><tspan
           y="488.09103"
           x="439.11328"
           id="tspan5852"
           sodipodi:role="line">H</tspan></text>
      <text
         xml:space="preserve"
         style="font-style:normal;font-variant:normal;font-weight:normal;font-stretch:normal;font-size:30px;line-height:125%;font-family:Sans;-inkscape-font-specification:'Sans, Normal';text-align:start;letter-spacing:0px;word-spacing:0px;writing-mode:lr-tb;text-anchor:start;fill:#ffffff;fill-opacity:1;stroke:none;stroke-width:1px;stroke-linecap:butt;stroke-linejoin:miter;stroke-opacity:1"
         x="510.17752"
         y="579.3078"
         id="text5854"
         sodipodi:linespacing="125%"><tspan
           sodipodi:role="line"
           id="tspan5856"
           x="510.17752"
           y="579.3078">H</tspan></text>
      <text
         sodipodi:linespacing="125%"
         id="text5858"
         y="619.25934"
         x="474.11508"
         style="font-style:normal;font-variant:normal;font-weight:normal;font-stretch:normal;font-size:30px;line-height:125%;font-family:Sans;-inkscape-font-specification:'Sans, Normal';text-align:start;letter-spacing:0px;word-spacing:0px;writing-mode:lr-tb;text-anchor:start;fill:#ffffff;fill-opacity:1;stroke:none;stroke-width:1px;stroke-linecap:butt;stroke-linejoin:miter;stroke-opacity:1"
         xml:space="preserve"><tspan
           y="619.25934"
           x="474.11508"
           id="tspan5860"
           sodipodi:role="line">H</tspan></text>
    </g>
    <g
       transform="matrix(-0.42062744,-0.90723346,0.90723346,-0.42062744,353.26478,862.58554)"
       id="g5881">
      <path
         style="color:#000000;clip-rule:nonzero;display:inline;overflow:visible;visibility:visible;opacity:1;isolation:auto;mix-blend-mode:normal;color-interpolation:sRGB;color-interpolation-filters:linearRGB;solid-color:#000000;solid-opacity:1;fill:none;fill-opacity:1;fill-rule:evenodd;stroke:#ffffff;stroke-width:4;stroke-linecap:butt;stroke-linejoin:round;stroke-miterlimit:4;stroke-dasharray:none;stroke-dashoffset:0;stroke-opacity:1;marker:none;color-rendering:auto;image-rendering:auto;shape-rendering:auto;text-rendering:auto;enable-background:accumulate"
         d="m 735.88826,378.58984 c -3.02296,0 -5.45662,2.46262 -5.45662,5.52154 l 0,0.36867 c 0,3.05892 2.43366,5.52152 5.45662,5.52152 l 2.51801,0 c -0.032,0.23196 -0.0549,0.46633 -0.0549,0.70745 l 0,158.39354 c 0,12.68948 10.09642,22.9046 22.63673,22.9046 12.5403,0 22.63532,-10.21512 22.63532,-22.9046 l 0,-158.39354 c 0,-0.24112 -0.0214,-0.47549 -0.0534,-0.70745 l 2.518,0 c 3.02295,0 5.45662,-2.4626 5.45662,-5.52152 l 0,-0.36867 c 0,-3.05892 -2.43367,-5.52154 -5.45662,-5.52154 z"
         id="path5883"
         inkscape:connector-curvature="0"
         sodipodi:nodetypes="sssscssssscsssss" />
      <path
         style="fill:none;fill-rule:evenodd;stroke:#ffffff;stroke-width:5.99999905;stroke-linecap:round;stroke-linejoin:miter;stroke-miterlimit:4;stroke-dasharray:none;stroke-opacity:1"
         d="m 748.85139,404.07256 0,63.84178"
         id="path5885"
         inkscape:connector-curvature="0" />
    </g>
    <g
       transform="matrix(1.1985154,0,0,0.86417122,-295.4006,52.652289)"
       id="g4840">
      <path
         transform="matrix(0.83436558,0,0,1.1571781,214.03578,-97.157657)"
         sodipodi:nodetypes="sssscccscccsssss"
         inkscape:connector-curvature="0"
         id="rect4162-4"
         d="m 194.45312,224.17916 c -6.03646,0 -10.89648,3.50492 -10.89648,7.85742 l 0,4.80078 c 0,4.35251 4.86001,7.85743 10.89648,7.85743 l 9.98829,0 0,68.32669 c -39.86277,16.7461 -65.81131,55.74701 -65.85743,98.98438 5e-5,59.36412 48.12417,107.48824 107.48829,107.48828 59.36412,-5e-5 107.48823,-48.12416 107.48828,-107.48828 -0.0548,-44.54889 -27.58405,-84.44718 -69.21289,-100.31055 l 0,-67.00052 9.98828,0 c 6.03646,0 10.89648,-3.50492 10.89648,-7.85743 l 0,-4.80078 c 0,-4.3525 -4.86002,-7.85742 -10.89648,-7.85742 z"
         style="color:#000000;clip-rule:nonzero;display:inline;overflow:visible;visibility:visible;opacity:1;isolation:auto;mix-blend-mode:normal;color-interpolation:sRGB;color-interpolation-filters:linearRGB;solid-color:#000000;solid-opacity:1;fill:#626262;fill-opacity:1;fill-rule:evenodd;stroke:#000000;stroke-width:7;stroke-linecap:butt;stroke-linejoin:round;stroke-miterlimit:4;stroke-dasharray:none;stroke-dashoffset:0;stroke-opacity:1;marker:none;color-rendering:auto;image-rendering:auto;shape-rendering:auto;text-rendering:auto;enable-background:accumulate" />
      <path
         style="fill:none;fill-rule:evenodd;stroke:#000000;stroke-width:4.91301727;stroke-linecap:round;stroke-linejoin:miter;stroke-miterlimit:4;stroke-dasharray:none;stroke-opacity:1"
         d="m 441.2917,204.93595 -29.0045,0"
         id="path4174-9"
         inkscape:connector-curvature="0" />
      <path
         style="fill:none;fill-rule:evenodd;stroke:#000000;stroke-width:4.91301727;stroke-linecap:round;stroke-linejoin:miter;stroke-miterlimit:4;stroke-dasharray:none;stroke-opacity:1"
         d="m 441.2917,214.64271 -15.50241,0"
         id="path4176-5"
         inkscape:connector-curvature="0" />
      <path
         inkscape:connector-curvature="0"
         id="path4180-0"
         d="m 441.2917,224.34956 -15.50241,0"
         style="fill:none;fill-rule:evenodd;stroke:#000000;stroke-width:4.91301727;stroke-linecap:round;stroke-linejoin:miter;stroke-miterlimit:4;stroke-dasharray:none;stroke-opacity:1" />
      <path
         style="fill:none;fill-rule:evenodd;stroke:#000000;stroke-width:4.91301727;stroke-linecap:round;stroke-linejoin:miter;stroke-miterlimit:4;stroke-dasharray:none;stroke-opacity:1"
         d="m 441.2917,234.0564 -15.50241,0"
         id="path4182-6"
         inkscape:connector-curvature="0" />
      <path
         inkscape:connector-curvature="0"
         id="path4184-0"
         d="m 441.2917,243.76319 -29.0045,0"
         style="fill:none;fill-rule:evenodd;stroke:#000000;stroke-width:4.91301727;stroke-linecap:round;stroke-linejoin:miter;stroke-miterlimit:4;stroke-dasharray:none;stroke-opacity:1" />
      <path
         sodipodi:nodetypes="cccccccsc"
         inkscape:connector-curvature="0"
         id="path4810"
         transform="matrix(0.83436558,0,0,1.1571781,214.03578,-97.157657)"
         d="m 271.59762,373.68826 c -32.63461,0.15035 -67.59239,14.98513 -89.96327,7.53049 -6.60398,-1.79056 -20.74112,-3.65366 -28.4449,-4.80273 -4.36997,11.33079 -6.62983,23.36554 -6.66797,35.50976 4e-4,54.98021 44.57058,99.55038 99.55079,99.55078 54.98021,-4e-4 99.55038,-44.57057 99.55078,-99.55078 -0.017,-9.37798 -1.35906,-18.70652 -3.98633,-27.70898 -12.75589,4.64016 -18.20845,4.09 -30.34167,0.59408 -13.43969,-3.87234 -25.50485,-11.06166 -39.69743,-11.12262 z"
         style="color:#000000;clip-rule:nonzero;display:inline;overflow:visible;visibility:visible;opacity:1;isolation:auto;mix-blend-mode:normal;color-interpolation:sRGB;color-interpolation-filters:linearRGB;solid-color:#000000;solid-opacity:1;fill:#a4f74c;fill-opacity:0.90196078;fill-rule:evenodd;stroke:none;stroke-width:4.87876034;stroke-linecap:round;stroke-linejoin:miter;stroke-miterlimit:4;stroke-dasharray:none;stroke-dashoffset:0;stroke-opacity:1;marker:none;color-rendering:auto;image-rendering:auto;shape-rendering:auto;text-rendering:auto;enable-background:accumulate" />
      <ellipse
         ry="13.039107"
         rx="9.4016495"
         cy="275.49753"
         cx="424.28613"
         id="path4834"
         style="color:#000000;clip-rule:nonzero;display:inline;overflow:visible;visibility:visible;opacity:1;isolation:auto;mix-blend-mode:normal;color-interpolation:sRGB;color-interpolation-filters:linearRGB;solid-color:#000000;solid-opacity:1;fill:#a4f74c;fill-opacity:0.90196078;fill-rule:evenodd;stroke:none;stroke-width:4.79388666;stroke-linecap:round;stroke-linejoin:miter;stroke-miterlimit:4;stroke-dasharray:none;stroke-dashoffset:0;stroke-opacity:1;marker:none;color-rendering:auto;image-rendering:auto;shape-rendering:auto;text-rendering:auto;enable-background:accumulate" />
      <ellipse
         style="color:#000000;clip-rule:nonzero;display:inline;overflow:visible;visibility:visible;opacity:1;isolation:auto;mix-blend-mode:normal;color-interpolation:sRGB;color-interpolation-filters:linearRGB;solid-color:#000000;solid-opacity:1;fill:#a4f74c;fill-opacity:0.90196078;fill-rule:evenodd;stroke:none;stroke-width:4.79388666;stroke-linecap:round;stroke-linejoin:miter;stroke-miterlimit:4;stroke-dasharray:none;stroke-dashoffset:0;stroke-opacity:1;marker:none;color-rendering:auto;image-rendering:auto;shape-rendering:auto;text-rendering:auto;enable-background:accumulate"
         id="ellipse4836"
         cx="400.46313"
         cy="226.7063"
         rx="8.05756"
         ry="11.174995" />
      <ellipse
         ry="11.174995"
         rx="8.05756"
         cy="323.02289"
         cx="407.6145"
         id="ellipse4923"
         style="color:#000000;clip-rule:nonzero;display:inline;overflow:visible;visibility:visible;opacity:1;isolation:auto;mix-blend-mode:normal;color-interpolation:sRGB;color-interpolation-filters:linearRGB;solid-color:#000000;solid-opacity:1;fill:#a4f74c;fill-opacity:0.90196078;fill-rule:evenodd;stroke:none;stroke-width:4.79388666;stroke-linecap:round;stroke-linejoin:miter;stroke-miterlimit:4;stroke-dasharray:none;stroke-dashoffset:0;stroke-opacity:1;marker:none;color-rendering:auto;image-rendering:auto;shape-rendering:auto;text-rendering:auto;enable-background:accumulate" />
    </g>
    <g
       transform="matrix(1.1985154,0,0,0.86417122,-375.51346,-114.29332)"
       id="g4993">
      <path
         style="color:#000000;clip-rule:nonzero;display:inline;overflow:visible;visibility:visible;opacity:1;isolation:auto;mix-blend-mode:normal;color-interpolation:sRGB;color-interpolation-filters:linearRGB;solid-color:#000000;solid-opacity:1;fill:#ffffff;fill-opacity:1;fill-rule:evenodd;stroke:none;stroke-width:6.87822437;stroke-linecap:butt;stroke-linejoin:round;stroke-miterlimit:4;stroke-dasharray:none;stroke-dashoffset:0;stroke-opacity:1;marker:none;color-rendering:auto;image-rendering:auto;shape-rendering:auto;text-rendering:auto;enable-background:accumulate"
         d="m 632.25151,172.78438 c -5.03661,0 -9.09165,4.05582 -9.09165,9.09243 l 0,5.55536 c 0,5.03663 4.05503,9.09245 9.09165,9.09245 l 8.33389,0 0,79.06615 c -33.26013,19.37822 -54.9107,64.50922 -54.94918,114.54255 4e-5,68.69486 40.15315,124.38304 89.68453,124.38309 49.53138,-6e-5 89.68448,-55.68823 89.68452,-124.38309 -0.0457,-51.551 -23.01518,-97.72042 -57.74885,-116.07717 l 0,-77.53153 8.33388,0 c 5.03661,0 9.09165,-4.05582 9.09165,-9.09245 l 0,-5.55536 c 0,-5.03661 -4.05504,-9.09243 -9.09165,-9.09243 z"
         id="path4991"
         inkscape:connector-curvature="0"
         sodipodi:nodetypes="sssscccscccsssss" />
      <path
         inkscape:connector-curvature="0"
         id="path4980"
         transform="matrix(0.83436558,0,0,1.1571781,214.03578,-97.157657)"
         d="m 501.23828,233.27539 c -6.03645,0 -10.89648,3.50493 -10.89648,7.85742 l 0,4.80078 c 0,4.35251 4.86001,7.85743 10.89648,7.85743 l 9.98828,0 0,68.32812 c -39.86278,16.7461 -65.8113,55.74701 -65.85742,98.98438 5e-5,59.36412 48.12416,107.48823 107.48828,107.48828 59.36412,-5e-5 107.48824,-48.12416 107.48828,-107.48828 -0.0548,-44.54889 -27.58405,-84.44718 -69.21289,-100.31055 l 0,-67.00195 9.98828,0 c 6.03646,0 10.89649,-3.50492 10.89649,-7.85743 l 0,-4.80078 c 0,-4.35249 -4.86003,-7.85742 -10.89649,-7.85742 l -99.88281,0 z m 28.98242,46.03906 a 9.6571097,9.6571091 0 0 1 9.65821,9.65625 9.6571097,9.6571091 0 0 1 -9.65821,9.65821 9.6571097,9.6571091 0 0 1 -9.65625,-9.65821 9.6571097,9.6571091 0 0 1 9.65625,-9.65625 z m 28.55274,40.55274 a 11.268022,11.268021 0 0 1 11.26758,11.26758 11.268022,11.268021 0 0 1 -11.26758,11.26757 11.268022,11.268021 0 0 1 -11.26758,-11.26757 11.268022,11.268021 0 0 1 11.26758,-11.26758 z m -22.83789,35.17969 a 9.6571097,9.6571093 0 0 1 9.65625,9.6582 9.6571097,9.6571093 0 0 1 -9.65625,9.65625 9.6571097,9.6571093 0 0 1 -9.65821,-9.65625 9.6571097,9.6571093 0 0 1 9.65821,-9.6582 z m 42.44726,27.73828 c 14.19258,0.0609 26.25758,7.2507 39.69727,11.12304 12.13323,3.49592 17.5859,4.04641 30.3418,-0.59375 2.62723,9.00246 3.9693,18.331 3.98632,27.70899 -4e-4,54.9802 -44.57056,99.55038 -99.55078,99.55078 -54.9802,-4e-4 -99.55038,-44.57058 -99.55078,-99.55078 0.0381,-12.14423 2.298,-24.17898 6.66797,-35.50977 7.70378,1.14907 21.84134,3.01218 28.44531,4.80274 22.37088,7.45464 57.32828,-7.38091 89.96289,-7.53125 z"
         style="color:#000000;clip-rule:nonzero;display:inline;overflow:visible;visibility:visible;opacity:1;isolation:auto;mix-blend-mode:normal;color-interpolation:sRGB;color-interpolation-filters:linearRGB;solid-color:#000000;solid-opacity:1;fill:#808080;fill-opacity:1;fill-rule:evenodd;stroke:none;stroke-width:6.87822437;stroke-linecap:butt;stroke-linejoin:round;stroke-miterlimit:4;stroke-dasharray:none;stroke-dashoffset:0;stroke-opacity:1;marker:none;color-rendering:auto;image-rendering:auto;shape-rendering:auto;text-rendering:auto;enable-background:accumulate" />
      <path
         sodipodi:nodetypes="sssscccscccsssss"
         inkscape:connector-curvature="0"
         id="rect4162-4-7"
         d="m 632.25151,172.78438 c -5.03661,0 -9.09165,4.05582 -9.09165,9.09243 l 0,5.55536 c 0,5.03663 4.05503,9.09245 9.09165,9.09245 l 8.33389,0 0,79.06615 c -33.26013,19.37822 -54.9107,64.50922 -54.94918,114.54255 4e-5,68.69486 40.15315,124.38304 89.68453,124.38309 49.53138,-6e-5 89.68448,-55.68823 89.68452,-124.38309 -0.0457,-51.551 -23.01518,-97.72042 -57.74885,-116.07717 l 0,-77.53153 8.33388,0 c 5.03661,0 9.09165,-4.05582 9.09165,-9.09245 l 0,-5.55536 c 0,-5.03661 -4.05504,-9.09243 -9.09165,-9.09243 z"
         style="color:#000000;clip-rule:nonzero;display:inline;overflow:visible;visibility:visible;opacity:1;isolation:auto;mix-blend-mode:normal;color-interpolation:sRGB;color-interpolation-filters:linearRGB;solid-color:#000000;solid-opacity:1;fill:none;fill-opacity:1;fill-rule:evenodd;stroke:#000000;stroke-width:6.87822437;stroke-linecap:butt;stroke-linejoin:round;stroke-miterlimit:4;stroke-dasharray:none;stroke-dashoffset:0;stroke-opacity:1;marker:none;color-rendering:auto;image-rendering:auto;shape-rendering:auto;text-rendering:auto;enable-background:accumulate" />
      <path
         style="fill:none;fill-rule:evenodd;stroke:#000000;stroke-width:4.91301727;stroke-linecap:round;stroke-linejoin:miter;stroke-miterlimit:4;stroke-dasharray:none;stroke-opacity:1"
         d="m 697.26244,215.46277 -29.0045,0"
         id="path4174-9-9"
         inkscape:connector-curvature="0" />
      <path
         style="fill:none;fill-rule:evenodd;stroke:#000000;stroke-width:4.91301727;stroke-linecap:round;stroke-linejoin:miter;stroke-miterlimit:4;stroke-dasharray:none;stroke-opacity:1"
         d="m 697.26244,225.16953 -15.50241,0"
         id="path4176-5-4"
         inkscape:connector-curvature="0" />
      <path
         inkscape:connector-curvature="0"
         id="path4180-0-0"
         d="m 697.26244,234.87638 -15.50241,0"
         style="fill:none;fill-rule:evenodd;stroke:#000000;stroke-width:4.91301727;stroke-linecap:round;stroke-linejoin:miter;stroke-miterlimit:4;stroke-dasharray:none;stroke-opacity:1" />
      <path
         style="fill:none;fill-rule:evenodd;stroke:#000000;stroke-width:4.91301727;stroke-linecap:round;stroke-linejoin:miter;stroke-miterlimit:4;stroke-dasharray:none;stroke-opacity:1"
         d="m 697.26244,244.58322 -15.50241,0"
         id="path4182-6-5"
         inkscape:connector-curvature="0" />
      <path
         inkscape:connector-curvature="0"
         id="path4184-0-3"
         d="m 697.26244,254.29001 -29.0045,0"
         style="fill:none;fill-rule:evenodd;stroke:#000000;stroke-width:4.91301727;stroke-linecap:round;stroke-linejoin:miter;stroke-miterlimit:4;stroke-dasharray:none;stroke-opacity:1" />
    </g>
  </g>
</svg>
