<?xml version="1.0" encoding="UTF-8" standalone="no"?>
<!-- Created with Inkscape (http://www.inkscape.org/) -->

<svg
   xmlns:dc="http://purl.org/dc/elements/1.1/"
   xmlns:cc="http://creativecommons.org/ns#"
   xmlns:rdf="http://www.w3.org/1999/02/22-rdf-syntax-ns#"
   xmlns:svg="http://www.w3.org/2000/svg"
   xmlns="http://www.w3.org/2000/svg"
   xmlns:sodipodi="http://sodipodi.sourceforge.net/DTD/sodipodi-0.dtd"
   xmlns:inkscape="http://www.inkscape.org/namespaces/inkscape"
   width="210mm"
   height="297mm"
   viewBox="0 0 744.09448 1052.3622"
   id="svg4218"
   version="1.1"
   inkscape:version="0.91 r13725"
   sodipodi:docname="levelBouton.svg">
  <defs
     id="defs4220" />
  <sodipodi:namedview
     id="base"
     pagecolor="#268b00"
     bordercolor="#666666"
     borderopacity="1.0"
     inkscape:pageopacity="0"
     inkscape:pageshadow="2"
     inkscape:zoom="1.4"
     inkscape:cx="257.51394"
     inkscape:cy="640.64735"
     inkscape:document-units="px"
     inkscape:current-layer="g4993"
     showgrid="false"
     inkscape:window-width="1920"
     inkscape:window-height="1005"
     inkscape:window-x="-9"
     inkscape:window-y="-9"
     inkscape:window-maximized="1"
     inkscape:showpageshadow="true"
     showborder="true" />
  <metadata
     id="metadata4223">
    <rdf:RDF>
      <cc:Work
         rdf:about="">
        <dc:format>image/svg+xml</dc:format>
        <dc:type
           rdf:resource="http://purl.org/dc/dcmitype/StillImage" />
        <dc:title></dc:title>
      </cc:Work>
    </rdf:RDF>
  </metadata>
  <g
     inkscape:label="Calque 1"
     inkscape:groupmode="layer"
     id="layer1"
     transform="translate(0,-3.464567e-6)">
    <g
       id="g4186"
       transform="matrix(1.1985154,0,0,0.86417122,-256.52518,83.960851)">
      <g
         id="g4840">
        <path
           transform="matrix(0.83436558,0,0,1.1571781,214.03578,-97.157657)"
           sodipodi:nodetypes="sssscccscccsssss"
           inkscape:connector-curvature="0"
           id="rect4162"
           d="m 194.45312,224.17916 c -6.03646,0 -10.89648,3.50492 -10.89648,7.85742 l 0,4.80078 c 0,4.35251 4.86001,7.85743 10.89648,7.85743 l 9.98829,0 0,68.32669 c -39.86277,16.7461 -65.81131,55.74701 -65.85743,98.98438 5e-5,59.36412 48.12417,107.48824 107.48829,107.48828 59.36412,-5e-5 107.48823,-48.12416 107.48828,-107.48828 -0.0548,-44.54889 -27.58405,-84.44718 -69.21289,-100.31055 l 0,-67.00052 9.98828,0 c 6.03646,0 10.89648,-3.50492 10.89648,-7.85743 l 0,-4.80078 c 0,-4.3525 -4.86002,-7.85742 -10.89648,-7.85742 z"
           style="color:#000000;clip-rule:nonzero;display:inline;overflow:visible;visibility:visible;opacity:1;isolation:auto;mix-blend-mode:normal;color-interpolation:sRGB;color-interpolation-filters:linearRGB;solid-color:#000000;solid-opacity:1;fill:none;fill-opacity:1;fill-rule:evenodd;stroke:#000000;stroke-width:7;stroke-linecap:butt;stroke-linejoin:round;stroke-miterlimit:4;stroke-dasharray:none;stroke-dashoffset:0;stroke-opacity:1;marker:none;color-rendering:auto;image-rendering:auto;shape-rendering:auto;text-rendering:auto;enable-background:accumulate" />
        <path
           style="fill:none;fill-rule:evenodd;stroke:#000000;stroke-width:4.91301727;stroke-linecap:round;stroke-linejoin:miter;stroke-miterlimit:4;stroke-dasharray:none;stroke-opacity:1"
           d="m 441.2917,204.93595 -29.0045,0"
           id="path4174"
           inkscape:connector-curvature="0" />
        <path
           style="fill:none;fill-rule:evenodd;stroke:#000000;stroke-width:4.91301727;stroke-linecap:round;stroke-linejoin:miter;stroke-miterlimit:4;stroke-dasharray:none;stroke-opacity:1"
           d="m 441.2917,214.64271 -15.50241,0"
           id="path4176"
           inkscape:connector-curvature="0" />
        <path
           inkscape:connector-curvature="0"
           id="path4180"
           d="m 441.2917,224.34956 -15.50241,0"
           style="fill:none;fill-rule:evenodd;stroke:#000000;stroke-width:4.91301727;stroke-linecap:round;stroke-linejoin:miter;stroke-miterlimit:4;stroke-dasharray:none;stroke-opacity:1" />
        <ellipse
           ry="11.1048"
           rx="8.0069466"
           cy="240.9957"
           cx="428.11621"
           id="ellipse4838"
           style="color:#000000;clip-rule:nonzero;display:inline;overflow:visible;visibility:visible;opacity:1;isolation:auto;mix-blend-mode:normal;color-interpolation:sRGB;color-interpolation-filters:linearRGB;solid-color:#000000;solid-opacity:1;fill:#ffff00;fill-opacity:1;fill-rule:evenodd;stroke:none;stroke-width:5;stroke-linecap:round;stroke-linejoin:miter;stroke-miterlimit:4;stroke-dasharray:none;stroke-dashoffset:0;stroke-opacity:1;marker:none;color-rendering:auto;image-rendering:auto;shape-rendering:auto;text-rendering:auto;enable-background:accumulate" />
        <path
           style="fill:none;fill-rule:evenodd;stroke:#000000;stroke-width:4.91301727;stroke-linecap:round;stroke-linejoin:miter;stroke-miterlimit:4;stroke-dasharray:none;stroke-opacity:1"
           d="m 441.2917,234.0564 -15.50241,0"
           id="path4182"
           inkscape:connector-curvature="0" />
        <path
           inkscape:connector-curvature="0"
           id="path4184"
           d="m 441.2917,243.76319 -29.0045,0"
           style="fill:none;fill-rule:evenodd;stroke:#000000;stroke-width:4.91301727;stroke-linecap:round;stroke-linejoin:miter;stroke-miterlimit:4;stroke-dasharray:none;stroke-opacity:1" />
        <path
           sodipodi:nodetypes="cccccccsc"
           inkscape:connector-curvature="0"
           id="path4810"
           transform="matrix(0.83436558,0,0,1.1571781,214.03578,-97.157657)"
           d="m 271.59762,373.68826 c -32.63461,0.15035 -67.59239,14.98513 -89.96327,7.53049 -6.60398,-1.79056 -20.74112,-3.65366 -28.4449,-4.80273 -4.36997,11.33079 -6.62983,23.36554 -6.66797,35.50976 4e-4,54.98021 44.57058,99.55038 99.55079,99.55078 54.98021,-4e-4 99.55038,-44.57057 99.55078,-99.55078 -0.017,-9.37798 -1.35906,-18.70652 -3.98633,-27.70898 -12.75589,4.64016 -18.20845,4.09 -30.34167,0.59408 -13.43969,-3.87234 -25.50485,-11.06166 -39.69743,-11.12262 z"
           style="color:#000000;clip-rule:nonzero;display:inline;overflow:visible;visibility:visible;opacity:1;isolation:auto;mix-blend-mode:normal;color-interpolation:sRGB;color-interpolation-filters:linearRGB;solid-color:#000000;solid-opacity:1;fill:#ffff00;fill-opacity:1;fill-rule:evenodd;stroke:none;stroke-width:4.87876034;stroke-linecap:round;stroke-linejoin:miter;stroke-miterlimit:4;stroke-dasharray:none;stroke-dashoffset:0;stroke-opacity:1;marker:none;color-rendering:auto;image-rendering:auto;shape-rendering:auto;text-rendering:auto;enable-background:accumulate" />
        <ellipse
           ry="11.1048"
           rx="8.0069466"
           cy="310.54681"
           cx="431.909"
           id="path4834"
           style="color:#000000;clip-rule:nonzero;display:inline;overflow:visible;visibility:visible;opacity:1;isolation:auto;mix-blend-mode:normal;color-interpolation:sRGB;color-interpolation-filters:linearRGB;solid-color:#000000;solid-opacity:1;fill:#ffff00;fill-opacity:1;fill-rule:evenodd;stroke:none;stroke-width:5;stroke-linecap:round;stroke-linejoin:miter;stroke-miterlimit:4;stroke-dasharray:none;stroke-dashoffset:0;stroke-opacity:1;marker:none;color-rendering:auto;image-rendering:auto;shape-rendering:auto;text-rendering:auto;enable-background:accumulate" />
        <ellipse
           style="color:#000000;clip-rule:nonzero;display:inline;overflow:visible;visibility:visible;opacity:1;isolation:auto;mix-blend-mode:normal;color-interpolation:sRGB;color-interpolation-filters:linearRGB;solid-color:#000000;solid-opacity:1;fill:#ffff00;fill-opacity:1;fill-rule:evenodd;stroke:none;stroke-width:5;stroke-linecap:round;stroke-linejoin:miter;stroke-miterlimit:4;stroke-dasharray:none;stroke-dashoffset:0;stroke-opacity:1;marker:none;color-rendering:auto;image-rendering:auto;shape-rendering:auto;text-rendering:auto;enable-background:accumulate"
           id="ellipse4836"
           cx="412.10233"
           cy="274.31009"
           rx="8.0069466"
           ry="11.1048" />
      </g>
      <g
         id="g4993">
        <path
           style="color:#000000;clip-rule:nonzero;display:inline;overflow:visible;visibility:visible;opacity:1;isolation:auto;mix-blend-mode:normal;color-interpolation:sRGB;color-interpolation-filters:linearRGB;solid-color:#000000;solid-opacity:1;fill:#ffffff;fill-opacity:1;fill-rule:evenodd;stroke:none;stroke-width:6.87822437;stroke-linecap:butt;stroke-linejoin:round;stroke-miterlimit:4;stroke-dasharray:none;stroke-dashoffset:0;stroke-opacity:1;marker:none;color-rendering:auto;image-rendering:auto;shape-rendering:auto;text-rendering:auto;enable-background:accumulate"
           d="m 632.25151,172.78438 c -5.03661,0 -9.09165,4.05582 -9.09165,9.09243 l 0,5.55536 c 0,5.03663 4.05503,9.09245 9.09165,9.09245 l 8.33389,0 0,79.06615 c -33.26013,19.37822 -54.9107,64.50922 -54.94918,114.54255 4e-5,68.69486 40.15315,124.38304 89.68453,124.38309 49.53138,-6e-5 89.68448,-55.68823 89.68452,-124.38309 -0.0457,-51.551 -23.01518,-97.72042 -57.74885,-116.07717 l 0,-77.53153 8.33388,0 c 5.03661,0 9.09165,-4.05582 9.09165,-9.09245 l 0,-5.55536 c 0,-5.03661 -4.05504,-9.09243 -9.09165,-9.09243 z"
           id="path4991"
           inkscape:connector-curvature="0"
           sodipodi:nodetypes="sssscccscccsssss"
           inkscape:export-filename="MenuButtonLiquid.png"
           inkscape:export-xdpi="144"
           inkscape:export-ydpi="144" />
        <g
           id="g5061"
           inkscape:export-filename="MenuButtonBottle.png"
           inkscape:export-xdpi="144"
           inkscape:export-ydpi="144">
          <path
             transform="matrix(0.83436558,0,0,1.1571781,214.03578,-97.157657)"
             style="color:#000000;clip-rule:nonzero;display:inline;overflow:visible;visibility:visible;opacity:1;isolation:auto;mix-blend-mode:normal;color-interpolation:sRGB;color-interpolation-filters:linearRGB;solid-color:#000000;solid-opacity:1;fill:#999999;fill-opacity:1;fill-rule:evenodd;stroke:none;stroke-width:6.87822437;stroke-linecap:butt;stroke-linejoin:round;stroke-miterlimit:4;stroke-dasharray:none;stroke-dashoffset:0;stroke-opacity:1;marker:none;color-rendering:auto;image-rendering:auto;shape-rendering:auto;text-rendering:auto;enable-background:accumulate"
             d="m 501.23828,233.27539 c -6.03645,0 -10.89648,3.50493 -10.89648,7.85742 l 0,4.80078 c 0,4.35251 4.86001,7.85743 10.89648,7.85743 l 9.98828,0 0,68.32812 c -39.86278,16.7461 -65.8113,55.74701 -65.85742,98.98438 5e-5,59.36412 48.12416,107.48823 107.48828,107.48828 59.36412,-5e-5 107.48824,-48.12416 107.48828,-107.48828 -0.0548,-44.54889 -27.58405,-84.44718 -69.21289,-100.31055 l 0,-67.00195 9.98828,0 c 6.03646,0 10.89649,-3.50492 10.89649,-7.85743 l 0,-4.80078 c 0,-4.35249 -4.86003,-7.85742 -10.89649,-7.85742 l -99.88281,0 z m 28.98242,46.03906 a 9.6571097,9.6571091 0 0 1 9.65821,9.65625 9.6571097,9.6571091 0 0 1 -9.65821,9.65821 9.6571097,9.6571091 0 0 1 -9.65625,-9.65821 9.6571097,9.6571091 0 0 1 9.65625,-9.65625 z m 28.55274,40.55274 a 11.268022,11.268021 0 0 1 11.26758,11.26758 11.268022,11.268021 0 0 1 -11.26758,11.26757 11.268022,11.268021 0 0 1 -11.26758,-11.26757 11.268022,11.268021 0 0 1 11.26758,-11.26758 z m -22.83789,35.17969 a 9.6571097,9.6571093 0 0 1 9.65625,9.6582 9.6571097,9.6571093 0 0 1 -9.65625,9.65625 9.6571097,9.6571093 0 0 1 -9.65821,-9.65625 9.6571097,9.6571093 0 0 1 9.65821,-9.6582 z m 42.44726,27.73828 c 14.19258,0.0609 26.25758,7.2507 39.69727,11.12304 12.13323,3.49592 17.5859,4.04641 30.3418,-0.59375 2.62723,9.00246 3.9693,18.331 3.98632,27.70899 -4e-4,54.9802 -44.57056,99.55038 -99.55078,99.55078 -54.9802,-4e-4 -99.55038,-44.57058 -99.55078,-99.55078 0.0381,-12.14423 2.298,-24.17898 6.66797,-35.50977 7.70378,1.14907 21.84134,3.01218 28.44531,4.80274 22.37088,7.45464 57.32828,-7.38091 89.96289,-7.53125 z"
             id="path4980"
             inkscape:connector-curvature="0" />
          <path
             style="color:#000000;clip-rule:nonzero;display:inline;overflow:visible;visibility:visible;opacity:1;isolation:auto;mix-blend-mode:normal;color-interpolation:sRGB;color-interpolation-filters:linearRGB;solid-color:#000000;solid-opacity:1;fill:none;fill-opacity:1;fill-rule:evenodd;stroke:#000000;stroke-width:6.87822437;stroke-linecap:butt;stroke-linejoin:round;stroke-miterlimit:4;stroke-dasharray:none;stroke-dashoffset:0;stroke-opacity:1;marker:none;color-rendering:auto;image-rendering:auto;shape-rendering:auto;text-rendering:auto;enable-background:accumulate"
             d="m 632.25151,172.78438 c -5.03661,0 -9.09165,4.05582 -9.09165,9.09243 l 0,5.55536 c 0,5.03663 4.05503,9.09245 9.09165,9.09245 l 8.33389,0 0,79.06615 c -33.26013,19.37822 -54.9107,64.50922 -54.94918,114.54255 4e-5,68.69486 40.15315,124.38304 89.68453,124.38309 49.53138,-6e-5 89.68448,-55.68823 89.68452,-124.38309 -0.0457,-51.551 -23.01518,-97.72042 -57.74885,-116.07717 l 0,-77.53153 8.33388,0 c 5.03661,0 9.09165,-4.05582 9.09165,-9.09245 l 0,-5.55536 c 0,-5.03661 -4.05504,-9.09243 -9.09165,-9.09243 z"
             id="rect4162-4"
             inkscape:connector-curvature="0"
             sodipodi:nodetypes="sssscccscccsssss" />
          <path
             inkscape:connector-curvature="0"
             id="path4174-9"
             d="m 697.26244,215.46277 -29.0045,0"
             style="fill:none;fill-rule:evenodd;stroke:#000000;stroke-width:4.91301727;stroke-linecap:round;stroke-linejoin:miter;stroke-miterlimit:4;stroke-dasharray:none;stroke-opacity:1" />
          <path
             inkscape:connector-curvature="0"
             id="path4176-5"
             d="m 697.26244,225.16953 -15.50241,0"
             style="fill:none;fill-rule:evenodd;stroke:#000000;stroke-width:4.91301727;stroke-linecap:round;stroke-linejoin:miter;stroke-miterlimit:4;stroke-dasharray:none;stroke-opacity:1" />
          <path
             style="fill:none;fill-rule:evenodd;stroke:#000000;stroke-width:4.91301727;stroke-linecap:round;stroke-linejoin:miter;stroke-miterlimit:4;stroke-dasharray:none;stroke-opacity:1"
             d="m 697.26244,234.87638 -15.50241,0"
             id="path4180-0"
             inkscape:connector-curvature="0" />
          <path
             inkscape:connector-curvature="0"
             id="path4182-6"
             d="m 697.26244,244.58322 -15.50241,0"
             style="fill:none;fill-rule:evenodd;stroke:#000000;stroke-width:4.91301727;stroke-linecap:round;stroke-linejoin:miter;stroke-miterlimit:4;stroke-dasharray:none;stroke-opacity:1" />
          <path
             style="fill:none;fill-rule:evenodd;stroke:#000000;stroke-width:4.91301727;stroke-linecap:round;stroke-linejoin:miter;stroke-miterlimit:4;stroke-dasharray:none;stroke-opacity:1"
             d="m 697.26244,254.29001 -29.0045,0"
             id="path4184-0"
             inkscape:connector-curvature="0" />
        </g>
      </g>
    </g>
  </g>
</svg>
