<?xml version="1.0" encoding="UTF-8" standalone="no"?>
<!-- Created with Inkscape (http://www.inkscape.org/) -->

<svg
   xmlns:dc="http://purl.org/dc/elements/1.1/"
   xmlns:cc="http://creativecommons.org/ns#"
   xmlns:rdf="http://www.w3.org/1999/02/22-rdf-syntax-ns#"
   xmlns:svg="http://www.w3.org/2000/svg"
   xmlns="http://www.w3.org/2000/svg"
   xmlns:sodipodi="http://sodipodi.sourceforge.net/DTD/sodipodi-0.dtd"
   xmlns:inkscape="http://www.inkscape.org/namespaces/inkscape"
   width="210mm"
   height="297mm"
   viewBox="0 0 744.09448 1052.3622"
   id="svg4218"
   version="1.1"
   inkscape:version="0.91 r13725"
   sodipodi:docname="levelBouton.svg">
  <defs
     id="defs4220">
    <filter
       inkscape:collect="always"
       style="color-interpolation-filters:sRGB"
       id="filter4193"
       x="-0.0016444878"
       width="1.003289"
       y="-0.0008933235"
       height="1.0017866">
      <feGaussianBlur
         inkscape:collect="always"
         stdDeviation="0.13598528"
         id="feGaussianBlur4195" />
    </filter>
    <filter
       inkscape:collect="always"
       style="color-interpolation-filters:sRGB"
       id="filter4209"
       x="-0.0065779511"
       width="1.0131559"
       y="-0.003573294"
       height="1.0071466">
      <feGaussianBlur
         inkscape:collect="always"
         stdDeviation="0.54394113"
         id="feGaussianBlur4211" />
    </filter>
  </defs>
  <sodipodi:namedview
     id="base"
     pagecolor="#268b00"
     bordercolor="#666666"
     borderopacity="1.0"
     inkscape:pageopacity="0"
     inkscape:pageshadow="2"
     inkscape:zoom="1.979899"
     inkscape:cx="720.89867"
     inkscape:cy="752.87467"
     inkscape:document-units="px"
     inkscape:current-layer="g4993"
     showgrid="false"
     inkscape:window-width="1920"
     inkscape:window-height="1005"
     inkscape:window-x="-9"
     inkscape:window-y="-9"
     inkscape:window-maximized="1"
     inkscape:showpageshadow="true"
     showborder="true" />
  <metadata
     id="metadata4223">
    <rdf:RDF>
      <cc:Work
         rdf:about="">
        <dc:format>image/svg+xml</dc:format>
        <dc:type
           rdf:resource="http://purl.org/dc/dcmitype/StillImage" />
        <dc:title />
      </cc:Work>
    </rdf:RDF>
  </metadata>
  <g
     inkscape:label="Calque 1"
     inkscape:groupmode="layer"
     id="layer1"
     transform="translate(0,-3.464567e-6)">
    <g
       id="g4993"
       style="filter:url(#filter4193)">
      <path
         style="color:#000000;clip-rule:nonzero;display:inline;overflow:visible;visibility:visible;opacity:1;isolation:auto;mix-blend-mode:normal;color-interpolation:sRGB;color-interpolation-filters:linearRGB;solid-color:#000000;solid-opacity:1;fill:#ffffff;fill-opacity:1;fill-rule:evenodd;stroke:none;stroke-width:6.87822437;stroke-linecap:butt;stroke-linejoin:round;stroke-miterlimit:4;stroke-dasharray:none;stroke-dashoffset:0;stroke-opacity:1;marker:none;color-rendering:auto;image-rendering:auto;shape-rendering:auto;text-rendering:auto;enable-background:accumulate"
         d="m 577.56563,172.78438 c -6.97625,0 -12.59292,4.05582 -12.59292,9.09243 l 0,5.55536 c 0,5.03663 5.61665,9.09245 12.59292,9.09245 l 11.54335,0 0,79.06615 c -46.0689,19.37822 -76.05729,64.50922 -76.11059,114.54255 6e-5,68.69486 55.61647,124.38304 124.22282,124.38309 68.60634,-6e-5 124.22275,-55.68823 124.2228,-124.38309 -0.0633,-51.551 -31.87852,-97.72042 -79.98843,-116.07717 l 0,-77.53153 11.54333,0 c 6.97625,0 12.59292,-4.05582 12.59292,-9.09245 l 0,-5.55536 c 0,-5.03661 -5.61667,-9.09243 -12.59292,-9.09243 z"
         id="path4991"
         inkscape:connector-curvature="0"
         sodipodi:nodetypes="sssscccscccsssss"
         inkscape:export-filename="MenuButtonLiquid.png"
         inkscape:export-xdpi="300"
         inkscape:export-ydpi="300" />
      <g
         id="g5061"
         inkscape:export-filename="MenuButtonBottle.png"
         inkscape:export-xdpi="300"
         inkscape:export-ydpi="300"
         style="filter:url(#filter4209)">
        <path
           style="color:#000000;clip-rule:nonzero;display:inline;overflow:visible;visibility:visible;opacity:1;isolation:auto;mix-blend-mode:normal;color-interpolation:sRGB;color-interpolation-filters:linearRGB;solid-color:#000000;solid-opacity:1;fill:#999999;fill-opacity:1;fill-rule:evenodd;stroke:none;stroke-width:6.87822437;stroke-linecap:butt;stroke-linejoin:round;stroke-miterlimit:4;stroke-dasharray:none;stroke-dashoffset:0;stroke-opacity:1;marker:none;color-rendering:auto;image-rendering:auto;shape-rendering:auto;text-rendering:auto;enable-background:accumulate"
           d="m 577.56596,172.78352 c -6.97624,0 -12.59292,4.05582 -12.59292,9.09243 l 0,5.55536 c 0,5.03663 5.61665,9.09244 12.59292,9.09244 l 11.54333,0 0,79.06781 c -46.06889,19.37822 -76.05726,64.50922 -76.11056,114.54255 5e-5,68.69486 55.61646,124.38303 124.22279,124.38309 68.60634,-6e-5 124.22277,-55.68823 124.22281,-124.38309 -0.0633,-51.551 -31.87853,-97.72042 -79.98843,-116.07717 l 0,-77.53319 11.54333,0 c 6.97625,0 12.59293,-4.05581 12.59293,-9.09244 l 0,-5.55536 c 0,-5.03661 -5.61668,-9.09243 -12.59293,-9.09243 l -115.43327,0 z m 33.49461,53.27539 a 11.160596,11.174995 0 0 1 11.16186,11.174 11.160596,11.174995 0 0 1 -11.16186,11.17627 11.160596,11.174995 0 0 1 -11.15961,-11.17627 11.160596,11.174995 0 0 1 11.15961,-11.174 z m 32.99803,46.92674 a 13.022306,13.039107 0 0 1 13.02179,13.0386 13.022306,13.039107 0 0 1 -13.02179,13.03858 13.022306,13.039107 0 0 1 -13.0218,-13.03858 13.022306,13.039107 0 0 1 13.0218,-13.0386 z m -26.39346,40.70917 a 11.160596,11.174995 0 0 1 11.1596,11.17625 11.160596,11.174995 0 0 1 -11.1596,11.17401 11.160596,11.174995 0 0 1 -11.16187,-11.17401 11.160596,11.174995 0 0 1 11.16187,-11.17625 z m 49.05575,32.09813 c 16.40218,0.0705 30.34555,8.39035 45.87762,12.87134 14.02222,4.0454 20.3238,4.68241 35.06562,-0.68708 3.03625,10.41745 4.58727,21.21223 4.60693,32.06424 -4.5e-4,63.62188 -51.5096,115.19752 -115.04954,115.19798 -63.53989,-4.6e-4 -115.04907,-51.5761 -115.04952,-115.19798 0.044,-14.05304 2.65576,-27.97939 7.70608,-41.09113 8.90315,1.32968 25.24175,3.48563 32.87387,5.55762 25.85374,8.62635 66.25355,-8.54102 103.96894,-8.71499 z"
           id="path4980"
           inkscape:connector-curvature="0" />
        <path
           style="color:#000000;clip-rule:nonzero;display:inline;overflow:visible;visibility:visible;opacity:1;isolation:auto;mix-blend-mode:normal;color-interpolation:sRGB;color-interpolation-filters:linearRGB;solid-color:#000000;solid-opacity:1;fill:none;fill-opacity:1;fill-rule:evenodd;stroke:#000000;stroke-width:9.82603455;stroke-linecap:butt;stroke-linejoin:round;stroke-miterlimit:4;stroke-dasharray:none;stroke-dashoffset:0;stroke-opacity:1;marker:none;color-rendering:auto;image-rendering:auto;shape-rendering:auto;text-rendering:auto;enable-background:accumulate"
           d="m 577.56566,172.78438 c -6.97624,0 -12.59292,4.05582 -12.59292,9.09243 l 0,5.55536 c 0,5.03663 5.61666,9.09245 12.59292,9.09245 l 11.54335,0 0,79.06615 c -46.06889,19.37822 -76.05728,64.50922 -76.11058,114.54255 5e-5,68.69486 55.61647,124.38304 124.22282,124.38309 68.60634,-6e-5 124.22275,-55.68823 124.2228,-124.38309 -0.0633,-51.551 -31.87852,-97.72042 -79.98843,-116.07717 l 0,-77.53153 11.54333,0 c 6.97625,0 12.59293,-4.05582 12.59293,-9.09245 l 0,-5.55536 c 0,-5.03661 -5.61668,-9.09243 -12.59293,-9.09243 z"
           id="rect4162-4"
           inkscape:connector-curvature="0"
           sodipodi:nodetypes="sssscccscccsssss" />
        <path
           inkscape:connector-curvature="0"
           id="path4174-9"
           d="m 667.61287,215.46277 -40.17438,0"
           style="fill:none;fill-rule:evenodd;stroke:#000000;stroke-width:4.91301727;stroke-linecap:round;stroke-linejoin:miter;stroke-miterlimit:4;stroke-dasharray:none;stroke-opacity:1" />
        <path
           inkscape:connector-curvature="0"
           id="path4176-5"
           d="m 667.61287,225.16953 -21.47252,0"
           style="fill:none;fill-rule:evenodd;stroke:#000000;stroke-width:4.91301727;stroke-linecap:round;stroke-linejoin:miter;stroke-miterlimit:4;stroke-dasharray:none;stroke-opacity:1" />
        <path
           style="fill:none;fill-rule:evenodd;stroke:#000000;stroke-width:4.91301727;stroke-linecap:round;stroke-linejoin:miter;stroke-miterlimit:4;stroke-dasharray:none;stroke-opacity:1"
           d="m 667.61287,234.87638 -21.47252,0"
           id="path4180-0"
           inkscape:connector-curvature="0" />
        <path
           inkscape:connector-curvature="0"
           id="path4182-6"
           d="m 667.61287,244.58322 -21.47252,0"
           style="fill:none;fill-rule:evenodd;stroke:#000000;stroke-width:4.91301727;stroke-linecap:round;stroke-linejoin:miter;stroke-miterlimit:4;stroke-dasharray:none;stroke-opacity:1" />
        <path
           style="fill:none;fill-rule:evenodd;stroke:#000000;stroke-width:4.91301727;stroke-linecap:round;stroke-linejoin:miter;stroke-miterlimit:4;stroke-dasharray:none;stroke-opacity:1"
           d="m 667.61287,254.29001 -40.17438,0"
           id="path4184-0"
           inkscape:connector-curvature="0" />
        <rect
           style="color:#000000;clip-rule:nonzero;display:inline;overflow:visible;visibility:visible;opacity:1;isolation:auto;mix-blend-mode:normal;color-interpolation:sRGB;color-interpolation-filters:linearRGB;solid-color:#000000;solid-opacity:1;fill:none;fill-opacity:1;fill-rule:evenodd;stroke:none;stroke-width:9.82603455;stroke-linecap:butt;stroke-linejoin:round;stroke-miterlimit:4;stroke-dasharray:none;stroke-dashoffset:0;stroke-opacity:1;marker:none;color-rendering:auto;image-rendering:auto;shape-rendering:auto;text-rendering:auto;enable-background:accumulate"
           id="rect4183"
           width="274.88834"
           height="365.33762"
           x="499.36435"
           y="159.32846" />
      </g>
    </g>
  </g>
  <g
     id="g4840"
     transform="translate(-232.33509,46.467017)">
    <path
       transform="matrix(0.83436558,0,0,1.1571781,214.03578,-97.157657)"
       sodipodi:nodetypes="sssscccscccsssss"
       inkscape:connector-curvature="0"
       id="rect4162"
       d="m 194.45312,224.17916 c -6.03646,0 -10.89648,3.50492 -10.89648,7.85742 l 0,4.80078 c 0,4.35251 4.86001,7.85743 10.89648,7.85743 l 9.98829,0 0,68.32669 c -39.86277,16.7461 -65.81131,55.74701 -65.85743,98.98438 5e-5,59.36412 48.12417,107.48824 107.48829,107.48828 59.36412,-5e-5 107.48823,-48.12416 107.48828,-107.48828 -0.0548,-44.54889 -27.58405,-84.44718 -69.21289,-100.31055 l 0,-67.00052 9.98828,0 c 6.03646,0 10.89648,-3.50492 10.89648,-7.85743 l 0,-4.80078 c 0,-4.3525 -4.86002,-7.85742 -10.89648,-7.85742 z"
       style="color:#000000;clip-rule:nonzero;display:inline;overflow:visible;visibility:visible;opacity:1;isolation:auto;mix-blend-mode:normal;color-interpolation:sRGB;color-interpolation-filters:linearRGB;solid-color:#000000;solid-opacity:1;fill:none;fill-opacity:1;fill-rule:evenodd;stroke:#000000;stroke-width:7;stroke-linecap:butt;stroke-linejoin:round;stroke-miterlimit:4;stroke-dasharray:none;stroke-dashoffset:0;stroke-opacity:1;marker:none;color-rendering:auto;image-rendering:auto;shape-rendering:auto;text-rendering:auto;enable-background:accumulate" />
    <path
       style="fill:none;fill-rule:evenodd;stroke:#000000;stroke-width:4.91301727;stroke-linecap:round;stroke-linejoin:miter;stroke-miterlimit:4;stroke-dasharray:none;stroke-opacity:1"
       d="m 441.2917,204.93595 -29.0045,0"
       id="path4174"
       inkscape:connector-curvature="0" />
    <path
       style="fill:none;fill-rule:evenodd;stroke:#000000;stroke-width:4.91301727;stroke-linecap:round;stroke-linejoin:miter;stroke-miterlimit:4;stroke-dasharray:none;stroke-opacity:1"
       d="m 441.2917,214.64271 -15.50241,0"
       id="path4176"
       inkscape:connector-curvature="0" />
    <path
       inkscape:connector-curvature="0"
       id="path4180"
       d="m 441.2917,224.34956 -15.50241,0"
       style="fill:none;fill-rule:evenodd;stroke:#000000;stroke-width:4.91301727;stroke-linecap:round;stroke-linejoin:miter;stroke-miterlimit:4;stroke-dasharray:none;stroke-opacity:1" />
    <ellipse
       ry="11.1048"
       rx="8.0069466"
       cy="240.9957"
       cx="428.11621"
       id="ellipse4838"
       style="color:#000000;clip-rule:nonzero;display:inline;overflow:visible;visibility:visible;opacity:1;isolation:auto;mix-blend-mode:normal;color-interpolation:sRGB;color-interpolation-filters:linearRGB;solid-color:#000000;solid-opacity:1;fill:#ffff00;fill-opacity:1;fill-rule:evenodd;stroke:none;stroke-width:5;stroke-linecap:round;stroke-linejoin:miter;stroke-miterlimit:4;stroke-dasharray:none;stroke-dashoffset:0;stroke-opacity:1;marker:none;color-rendering:auto;image-rendering:auto;shape-rendering:auto;text-rendering:auto;enable-background:accumulate" />
    <path
       style="fill:none;fill-rule:evenodd;stroke:#000000;stroke-width:4.91301727;stroke-linecap:round;stroke-linejoin:miter;stroke-miterlimit:4;stroke-dasharray:none;stroke-opacity:1"
       d="m 441.2917,234.0564 -15.50241,0"
       id="path4182"
       inkscape:connector-curvature="0" />
    <path
       inkscape:connector-curvature="0"
       id="path4184"
       d="m 441.2917,243.76319 -29.0045,0"
       style="fill:none;fill-rule:evenodd;stroke:#000000;stroke-width:4.91301727;stroke-linecap:round;stroke-linejoin:miter;stroke-miterlimit:4;stroke-dasharray:none;stroke-opacity:1" />
    <path
       sodipodi:nodetypes="cccccccsc"
       inkscape:connector-curvature="0"
       id="path4810"
       transform="matrix(0.83436558,0,0,1.1571781,214.03578,-97.157657)"
       d="m 271.59762,373.68826 c -32.63461,0.15035 -67.59239,14.98513 -89.96327,7.53049 -6.60398,-1.79056 -20.74112,-3.65366 -28.4449,-4.80273 -4.36997,11.33079 -6.62983,23.36554 -6.66797,35.50976 4e-4,54.98021 44.57058,99.55038 99.55079,99.55078 54.98021,-4e-4 99.55038,-44.57057 99.55078,-99.55078 -0.017,-9.37798 -1.35906,-18.70652 -3.98633,-27.70898 -12.75589,4.64016 -18.20845,4.09 -30.34167,0.59408 -13.43969,-3.87234 -25.50485,-11.06166 -39.69743,-11.12262 z"
       style="color:#000000;clip-rule:nonzero;display:inline;overflow:visible;visibility:visible;opacity:1;isolation:auto;mix-blend-mode:normal;color-interpolation:sRGB;color-interpolation-filters:linearRGB;solid-color:#000000;solid-opacity:1;fill:#ffff00;fill-opacity:1;fill-rule:evenodd;stroke:none;stroke-width:4.87876034;stroke-linecap:round;stroke-linejoin:miter;stroke-miterlimit:4;stroke-dasharray:none;stroke-dashoffset:0;stroke-opacity:1;marker:none;color-rendering:auto;image-rendering:auto;shape-rendering:auto;text-rendering:auto;enable-background:accumulate" />
    <ellipse
       ry="11.1048"
       rx="8.0069466"
       cy="310.54681"
       cx="431.909"
       id="path4834"
       style="color:#000000;clip-rule:nonzero;display:inline;overflow:visible;visibility:visible;opacity:1;isolation:auto;mix-blend-mode:normal;color-interpolation:sRGB;color-interpolation-filters:linearRGB;solid-color:#000000;solid-opacity:1;fill:#ffff00;fill-opacity:1;fill-rule:evenodd;stroke:none;stroke-width:5;stroke-linecap:round;stroke-linejoin:miter;stroke-miterlimit:4;stroke-dasharray:none;stroke-dashoffset:0;stroke-opacity:1;marker:none;color-rendering:auto;image-rendering:auto;shape-rendering:auto;text-rendering:auto;enable-background:accumulate" />
    <ellipse
       style="color:#000000;clip-rule:nonzero;display:inline;overflow:visible;visibility:visible;opacity:1;isolation:auto;mix-blend-mode:normal;color-interpolation:sRGB;color-interpolation-filters:linearRGB;solid-color:#000000;solid-opacity:1;fill:#ffff00;fill-opacity:1;fill-rule:evenodd;stroke:none;stroke-width:5;stroke-linecap:round;stroke-linejoin:miter;stroke-miterlimit:4;stroke-dasharray:none;stroke-dashoffset:0;stroke-opacity:1;marker:none;color-rendering:auto;image-rendering:auto;shape-rendering:auto;text-rendering:auto;enable-background:accumulate"
       id="ellipse4836"
       cx="412.10233"
       cy="274.31009"
       rx="8.0069466"
       ry="11.1048" />
  </g>
</svg>
