<?xml version="1.0" encoding="UTF-8" standalone="no"?>
<!-- Created with Inkscape (http://www.inkscape.org/) -->

<svg
   xmlns:dc="http://purl.org/dc/elements/1.1/"
   xmlns:cc="http://creativecommons.org/ns#"
   xmlns:rdf="http://www.w3.org/1999/02/22-rdf-syntax-ns#"
   xmlns:svg="http://www.w3.org/2000/svg"
   xmlns="http://www.w3.org/2000/svg"
   xmlns:sodipodi="http://sodipodi.sourceforge.net/DTD/sodipodi-0.dtd"
   xmlns:inkscape="http://www.inkscape.org/namespaces/inkscape"
   width="210mm"
   height="297mm"
   viewBox="0 0 744.09448819 1052.3622047"
   id="svg4179"
   version="1.1"
   inkscape:version="0.91 r13725"
   sodipodi:docname="ReactionBouton.svg">
  <defs
     id="defs4181" />
  <sodipodi:namedview
     id="base"
     pagecolor="#ffffff"
     bordercolor="#666666"
     borderopacity="1.0"
     inkscape:pageopacity="0.0"
     inkscape:pageshadow="2"
     inkscape:zoom="0.49497475"
     inkscape:cx="470.04844"
     inkscape:cy="642.95626"
     inkscape:document-units="px"
     inkscape:current-layer="layer1"
     showgrid="false"
     inkscape:window-width="1920"
     inkscape:window-height="1005"
     inkscape:window-x="-9"
     inkscape:window-y="-9"
     inkscape:window-maximized="1" />
  <metadata
     id="metadata4184">
    <rdf:RDF>
      <cc:Work
         rdf:about="">
        <dc:format>image/svg+xml</dc:format>
        <dc:type
           rdf:resource="http://purl.org/dc/dcmitype/StillImage" />
      </cc:Work>
    </rdf:RDF>
  </metadata>
  <g
     inkscape:label="Calque 1"
     inkscape:groupmode="layer"
     id="layer1">
    <g
       transform="matrix(1.1985154,0,0,0.86417122,-563.66803,-121.75343)"
       id="g5061"
       inkscape:export-filename="MenuButtonBottle.png"
       inkscape:export-xdpi="144"
       inkscape:export-ydpi="144">
      <path
         transform="matrix(0.83436558,0,0,1.1571781,214.03578,-97.157657)"
         style="color:#000000;clip-rule:nonzero;display:inline;overflow:visible;visibility:visible;opacity:1;isolation:auto;mix-blend-mode:normal;color-interpolation:sRGB;color-interpolation-filters:linearRGB;solid-color:#000000;solid-opacity:1;fill:#999999;fill-opacity:1;fill-rule:evenodd;stroke:none;stroke-width:6.87822437;stroke-linecap:butt;stroke-linejoin:round;stroke-miterlimit:4;stroke-dasharray:none;stroke-dashoffset:0;stroke-opacity:1;marker:none;color-rendering:auto;image-rendering:auto;shape-rendering:auto;text-rendering:auto;enable-background:accumulate"
         d="m 501.23828,233.27539 c -6.03645,0 -10.89648,3.50493 -10.89648,7.85742 l 0,4.80078 c 0,4.35251 4.86001,7.85743 10.89648,7.85743 l 9.98828,0 0,68.32812 c -39.86278,16.7461 -65.8113,55.74701 -65.85742,98.98438 5e-5,59.36412 48.12416,107.48823 107.48828,107.48828 59.36412,-5e-5 107.48824,-48.12416 107.48828,-107.48828 -0.0548,-44.54889 -27.58405,-84.44718 -69.21289,-100.31055 l 0,-67.00195 9.98828,0 c 6.03646,0 10.89649,-3.50492 10.89649,-7.85743 l 0,-4.80078 c 0,-4.35249 -4.86003,-7.85742 -10.89649,-7.85742 l -99.88281,0 z m 28.98242,46.03906 a 9.6571097,9.6571091 0 0 1 9.65821,9.65625 9.6571097,9.6571091 0 0 1 -9.65821,9.65821 9.6571097,9.6571091 0 0 1 -9.65625,-9.65821 9.6571097,9.6571091 0 0 1 9.65625,-9.65625 z m 28.55274,40.55274 a 11.268022,11.268021 0 0 1 11.26758,11.26758 11.268022,11.268021 0 0 1 -11.26758,11.26757 11.268022,11.268021 0 0 1 -11.26758,-11.26757 11.268022,11.268021 0 0 1 11.26758,-11.26758 z m -22.83789,35.17969 a 9.6571097,9.6571093 0 0 1 9.65625,9.6582 9.6571097,9.6571093 0 0 1 -9.65625,9.65625 9.6571097,9.6571093 0 0 1 -9.65821,-9.65625 9.6571097,9.6571093 0 0 1 9.65821,-9.6582 z m 42.44726,27.73828 c 14.19258,0.0609 26.25758,7.2507 39.69727,11.12304 12.13323,3.49592 17.5859,4.04641 30.3418,-0.59375 2.62723,9.00246 3.9693,18.331 3.98632,27.70899 -4e-4,54.9802 -44.57056,99.55038 -99.55078,99.55078 -54.9802,-4e-4 -99.55038,-44.57058 -99.55078,-99.55078 0.0381,-12.14423 2.298,-24.17898 6.66797,-35.50977 7.70378,1.14907 21.84134,3.01218 28.44531,4.80274 22.37088,7.45464 57.32828,-7.38091 89.96289,-7.53125 z"
         id="path4980"
         inkscape:connector-curvature="0" />
      <path
         style="color:#000000;clip-rule:nonzero;display:inline;overflow:visible;visibility:visible;opacity:1;isolation:auto;mix-blend-mode:normal;color-interpolation:sRGB;color-interpolation-filters:linearRGB;solid-color:#000000;solid-opacity:1;fill:none;fill-opacity:1;fill-rule:evenodd;stroke:#000000;stroke-width:6.87822437;stroke-linecap:butt;stroke-linejoin:round;stroke-miterlimit:4;stroke-dasharray:none;stroke-dashoffset:0;stroke-opacity:1;marker:none;color-rendering:auto;image-rendering:auto;shape-rendering:auto;text-rendering:auto;enable-background:accumulate"
         d="m 632.25151,172.78438 c -5.03661,0 -9.09165,4.05582 -9.09165,9.09243 l 0,5.55536 c 0,5.03663 4.05503,9.09245 9.09165,9.09245 l 8.33389,0 0,79.06615 c -33.26013,19.37822 -54.9107,64.50922 -54.94918,114.54255 4e-5,68.69486 40.15315,124.38304 89.68453,124.38309 49.53138,-6e-5 89.68448,-55.68823 89.68452,-124.38309 -0.0457,-51.551 -23.01518,-97.72042 -57.74885,-116.07717 l 0,-77.53153 8.33388,0 c 5.03661,0 9.09165,-4.05582 9.09165,-9.09245 l 0,-5.55536 c 0,-5.03661 -4.05504,-9.09243 -9.09165,-9.09243 z"
         id="rect4162-4"
         inkscape:connector-curvature="0"
         sodipodi:nodetypes="sssscccscccsssss" />
      <path
         inkscape:connector-curvature="0"
         id="path4174-9"
         d="m 697.26244,215.46277 -29.0045,0"
         style="fill:none;fill-rule:evenodd;stroke:#000000;stroke-width:4.91301727;stroke-linecap:round;stroke-linejoin:miter;stroke-miterlimit:4;stroke-dasharray:none;stroke-opacity:1" />
      <path
         inkscape:connector-curvature="0"
         id="path4176-5"
         d="m 697.26244,225.16953 -15.50241,0"
         style="fill:none;fill-rule:evenodd;stroke:#000000;stroke-width:4.91301727;stroke-linecap:round;stroke-linejoin:miter;stroke-miterlimit:4;stroke-dasharray:none;stroke-opacity:1" />
      <path
         style="fill:none;fill-rule:evenodd;stroke:#000000;stroke-width:4.91301727;stroke-linecap:round;stroke-linejoin:miter;stroke-miterlimit:4;stroke-dasharray:none;stroke-opacity:1"
         d="m 697.26244,234.87638 -15.50241,0"
         id="path4180-0"
         inkscape:connector-curvature="0" />
      <path
         inkscape:connector-curvature="0"
         id="path4182-6"
         d="m 697.26244,244.58322 -15.50241,0"
         style="fill:none;fill-rule:evenodd;stroke:#000000;stroke-width:4.91301727;stroke-linecap:round;stroke-linejoin:miter;stroke-miterlimit:4;stroke-dasharray:none;stroke-opacity:1" />
      <path
         style="fill:none;fill-rule:evenodd;stroke:#000000;stroke-width:4.91301727;stroke-linecap:round;stroke-linejoin:miter;stroke-miterlimit:4;stroke-dasharray:none;stroke-opacity:1"
         d="m 697.26244,254.29001 -29.0045,0"
         id="path4184-0"
         inkscape:connector-curvature="0" />
    </g>
    <g
       id="g4787"
       inkscape:export-filename="ReactionButton.png"
       inkscape:export-xdpi="144"
       inkscape:export-ydpi="144">
      <path
         inkscape:connector-curvature="0"
         id="path4753"
         d="m 366.42857,473.79078 51.42857,-32.85715"
         style="fill:#ffffff;fill-rule:evenodd;stroke:#000000;stroke-width:7;stroke-linecap:butt;stroke-linejoin:round;stroke-opacity:1;color:#000000;clip-rule:nonzero;display:inline;overflow:visible;visibility:visible;opacity:1;isolation:auto;mix-blend-mode:normal;color-interpolation:sRGB;color-interpolation-filters:linearRGB;solid-color:#000000;solid-opacity:1;fill-opacity:1;stroke-miterlimit:4;stroke-dasharray:none;stroke-dashoffset:0;marker:none;filter-blend-mode:normal;filter-gaussianBlur-deviation:0;color-rendering:auto;image-rendering:auto;shape-rendering:auto;text-rendering:auto;enable-background:accumulate" />
      <path
         sodipodi:nodetypes="cc"
         style="color:#000000;clip-rule:nonzero;display:inline;overflow:visible;visibility:visible;opacity:1;isolation:auto;mix-blend-mode:normal;color-interpolation:sRGB;color-interpolation-filters:linearRGB;solid-color:#000000;solid-opacity:1;fill:#ffffff;fill-opacity:1;fill-rule:evenodd;stroke:#000000;stroke-width:7;stroke-linecap:butt;stroke-linejoin:round;stroke-miterlimit:4;stroke-dasharray:none;stroke-dashoffset:0;stroke-opacity:1;marker:none;color-rendering:auto;image-rendering:auto;shape-rendering:auto;text-rendering:auto;enable-background:accumulate"
         d="m 357.60827,550.19373 33.39693,20.05123"
         id="path4769"
         inkscape:connector-curvature="0" />
      <path
         inkscape:connector-curvature="0"
         id="path4775"
         d="m 202.65503,466.19953 34.10136,15.36301"
         style="color:#000000;clip-rule:nonzero;display:inline;overflow:visible;visibility:visible;opacity:1;isolation:auto;mix-blend-mode:normal;color-interpolation:sRGB;color-interpolation-filters:linearRGB;solid-color:#000000;solid-opacity:1;fill:#ffffff;fill-opacity:1;fill-rule:evenodd;stroke:#000000;stroke-width:7;stroke-linecap:butt;stroke-linejoin:round;stroke-miterlimit:4;stroke-dasharray:none;stroke-dashoffset:0;stroke-opacity:1;marker:none;color-rendering:auto;image-rendering:auto;shape-rendering:auto;text-rendering:auto;enable-background:accumulate"
         sodipodi:nodetypes="cc" />
      <circle
         r="76.071426"
         cy="507.71936"
         cx="296.78571"
         id="path4749"
         style="color:#000000;clip-rule:nonzero;display:inline;overflow:visible;visibility:visible;opacity:1;isolation:auto;mix-blend-mode:normal;color-interpolation:sRGB;color-interpolation-filters:linearRGB;solid-color:#000000;solid-opacity:1;fill:#ffffff;fill-opacity:1;fill-rule:evenodd;stroke:#000000;stroke-width:7;stroke-linecap:butt;stroke-linejoin:round;stroke-miterlimit:4;stroke-dasharray:none;stroke-dashoffset:0;stroke-opacity:1;marker:none;color-rendering:auto;image-rendering:auto;shape-rendering:auto;text-rendering:auto;enable-background:accumulate" />
      <circle
         style="color:#000000;clip-rule:nonzero;display:inline;overflow:visible;visibility:visible;opacity:1;isolation:auto;mix-blend-mode:normal;color-interpolation:sRGB;color-interpolation-filters:linearRGB;solid-color:#000000;solid-opacity:1;fill:#ffffff;fill-opacity:1;fill-rule:evenodd;stroke:#000000;stroke-width:7;stroke-linecap:butt;stroke-linejoin:round;stroke-miterlimit:4;stroke-dasharray:none;stroke-dashoffset:0;stroke-opacity:1;marker:none;color-rendering:auto;image-rendering:auto;shape-rendering:auto;text-rendering:auto;enable-background:accumulate"
         id="circle4751"
         cx="436.78571"
         cy="429.14792"
         r="21.785713" />
      <circle
         r="21.785713"
         cy="577.80603"
         cx="408.46552"
         id="circle4771"
         style="color:#000000;clip-rule:nonzero;display:inline;overflow:visible;visibility:visible;opacity:1;isolation:auto;mix-blend-mode:normal;color-interpolation:sRGB;color-interpolation-filters:linearRGB;solid-color:#000000;solid-opacity:1;fill:#ffffff;fill-opacity:1;fill-rule:evenodd;stroke:#000000;stroke-width:7;stroke-linecap:butt;stroke-linejoin:round;stroke-miterlimit:4;stroke-dasharray:none;stroke-dashoffset:0;stroke-opacity:1;marker:none;color-rendering:auto;image-rendering:auto;shape-rendering:auto;text-rendering:auto;enable-background:accumulate" />
      <circle
         style="color:#000000;clip-rule:nonzero;display:inline;overflow:visible;visibility:visible;opacity:1;isolation:auto;mix-blend-mode:normal;color-interpolation:sRGB;color-interpolation-filters:linearRGB;solid-color:#000000;solid-opacity:1;fill:#ffffff;fill-opacity:1;fill-rule:evenodd;stroke:#000000;stroke-width:7;stroke-linecap:butt;stroke-linejoin:round;stroke-miterlimit:4;stroke-dasharray:none;stroke-dashoffset:0;stroke-opacity:1;marker:none;color-rendering:auto;image-rendering:auto;shape-rendering:auto;text-rendering:auto;enable-background:accumulate"
         id="circle4773"
         cx="179.95747"
         cy="456.65771"
         r="30.357141" />
    </g>
  </g>
</svg>
